<?xml version="1.0" standalone="no"?>
<!DOCTYPE svg PUBLIC "-//W3C//DTD SVG 20010904//EN"
 "http://www.w3.org/TR/2001/REC-SVG-20010904/DTD/svg10.dtd">
<svg version="1.0" xmlns="http://www.w3.org/2000/svg"
 width="878.000000pt" height="693.000000pt" viewBox="0 0 878.000000 693.000000"
 preserveAspectRatio="xMidYMid meet">

<g transform="translate(0.000000,693.000000) scale(0.100000,-0.100000)"
fill="#000000" stroke="none">
<path d="M0 3465 l0 -3465 4390 0 4390 0 0 3465 0 3465 -4390 0 -4390 0 0
-3465z m3030 2984 c0 -39 -1 -40 -32 -37 -30 3 -33 6 -36 41 -3 36 -3 37 32
37 35 0 36 -1 36 -41z m1585 1 c0 -33 -2 -35 -35 -35 -29 0 -36 4 -38 23 -6
40 5 54 40 50 30 -3 33 -6 33 -38z m665 -145 l0 -185 -35 0 -35 0 0 185 0 185
35 0 35 0 0 -185z m820 0 l0 -185 -30 0 c-16 0 -30 4 -30 9 0 5 -19 2 -43 -7
-39 -14 -45 -14 -77 1 -46 22 -61 48 -67 116 -10 111 50 178 137 154 l40 -10
0 53 0 54 35 0 35 0 0 -185z m-3650 146 c59 -42 65 -101 10 -101 -23 0 -33 6
-40 24 -11 30 -40 40 -86 31 -29 -5 -35 -10 -32 -28 2 -17 18 -26 78 -44 95
-28 135 -67 126 -121 -7 -48 -39 -78 -97 -92 -98 -24 -205 30 -197 99 3 22 8
26 38 26 27 0 36 -4 38 -20 2 -11 11 -26 20 -32 22 -17 84 -16 108 1 31 24 6
48 -82 78 -44 15 -86 36 -96 48 -20 25 -23 71 -8 100 30 56 159 74 220 31z
m5062 3 c14 -7 37 -28 50 -46 20 -28 23 -45 23 -115 0 -67 -4 -86 -21 -110
-35 -47 -80 -67 -149 -67 -78 0 -129 29 -156 88 -36 79 -16 195 40 235 57 41
150 48 213 15z m-6114 -128 c-3 -136 -4 -146 -27 -170 -50 -53 -125 -57 -181
-9 -24 20 -30 33 -30 64 0 37 2 39 30 39 20 0 32 -6 36 -17 11 -36 21 -48 43
-51 45 -7 51 11 51 154 l0 134 41 0 41 0 -4 -144z m2344 39 c18 -58 35 -105
39 -105 3 0 20 47 39 105 l34 105 53 0 53 0 0 -175 0 -175 -40 0 -40 0 -1 98
-1 97 -32 -95 c-33 -94 -33 -95 -66 -95 -33 0 -33 1 -66 95 l-32 95 -1 -97 -1
-98 -35 0 -35 0 0 175 0 175 50 0 50 0 32 -105z m3388 83 c59 -30 80 -72 80
-158 0 -125 -57 -169 -217 -170 l-93 0 0 175 0 175 93 0 c76 0 101 -4 137 -22z
m641 -93 l36 -110 35 110 34 110 52 3 52 3 0 -175 0 -176 -35 0 -35 0 0 96 c0
52 -4 93 -8 90 -4 -2 -21 -45 -37 -95 -28 -90 -29 -91 -61 -91 -32 0 -33 1
-60 88 -16 48 -32 91 -36 97 -4 5 -8 -35 -8 -88 l0 -97 -35 0 -35 0 0 176 0
175 52 -3 53 -3 36 -110z m-4341 70 c0 -31 3 -35 25 -35 21 0 25 -5 25 -30 0
-25 -4 -30 -25 -30 -24 0 -25 -2 -25 -74 0 -70 1 -75 23 -78 16 -2 23 -11 25
-30 2 -18 -1 -28 -10 -28 -7 0 -23 -3 -35 -6 -15 -4 -29 2 -47 20 -24 23 -26
32 -26 111 0 69 -3 85 -15 85 -10 0 -15 10 -15 30 0 19 5 30 14 30 15 0 26 21
26 51 0 14 7 19 30 19 28 0 30 -3 30 -35z m-1816 -39 c41 -17 56 -55 56 -141
0 -47 4 -64 15 -69 25 -9 18 -45 -11 -57 -21 -7 -32 -6 -51 6 -19 13 -27 14
-39 4 -8 -7 -35 -13 -60 -13 -38 -1 -50 4 -70 27 -13 15 -24 38 -24 50 0 50
63 97 130 97 27 0 31 3 28 23 -4 31 -52 36 -70 8 -13 -22 -78 -31 -78 -12 0
70 93 111 174 77z m532 -17 c22 -20 24 -31 24 -105 0 -73 2 -82 20 -87 30 -8
26 -45 -6 -58 -20 -7 -32 -6 -50 6 -20 13 -27 13 -60 -1 -31 -13 -45 -14 -76
-5 -21 7 -42 20 -48 31 -13 24 -13 66 0 89 12 23 79 51 120 51 23 0 30 5 30
19 0 11 -9 23 -20 26 -27 9 -60 -3 -60 -21 0 -9 -11 -14 -35 -14 -38 0 -44 14
-24 51 27 51 138 62 185 18z m560 16 c23 -10 39 -26 49 -49 22 -51 19 -56 -25
-56 -32 0 -40 4 -40 18 0 10 -5 23 -12 30 -32 32 -78 -9 -78 -69 0 -57 14 -79
51 -79 24 0 32 6 40 30 9 24 17 30 39 30 37 0 42 -9 29 -52 -24 -87 -165 -101
-212 -21 -22 38 -25 129 -5 170 14 30 69 63 106 63 12 0 38 -7 58 -15z m232
-20 c3 -27 -1 -32 -30 -40 l-33 -10 -3 -97 -3 -98 -39 0 -40 0 0 135 0 136 45
-2 c24 -2 48 1 52 5 4 4 16 6 28 4 14 -2 21 -12 23 -33z m316 25 c60 -22 88
-148 50 -221 -21 -41 -73 -63 -119 -50 l-35 9 0 -44 0 -44 -40 0 -40 0 0 176
0 177 44 -5 c24 -3 50 -2 58 3 18 12 51 11 82 -1z m942 -21 c22 -20 24 -31 24
-105 0 -73 2 -82 20 -87 30 -8 26 -45 -6 -58 -20 -7 -32 -6 -50 6 -20 13 -27
13 -60 -1 -31 -13 -45 -14 -76 -5 -21 7 -42 20 -48 31 -13 24 -13 66 0 89 12
23 79 51 120 51 23 0 30 5 30 19 0 11 -9 23 -20 26 -27 9 -60 -3 -60 -21 0 -9
-11 -14 -35 -14 -38 0 -44 14 -24 51 27 51 138 62 185 18z m286 1 c15 -18 18
-42 18 -136 l0 -114 -35 0 -34 0 -3 103 -3 102 -30 3 c-44 5 -55 -18 -55 -120
l0 -88 -35 0 -35 0 0 135 0 135 30 0 c17 0 30 -5 30 -10 0 -6 12 -4 28 5 37
21 101 13 124 -15z m391 -10 c27 -30 32 -58 27 -134 -6 -85 -70 -130 -147
-103 -22 8 -23 6 -23 -37 0 -46 0 -46 -35 -46 l-35 0 0 175 0 175 30 0 c17 0
30 -4 30 -9 0 -6 12 -3 28 5 40 22 91 11 125 -26z m643 9 c22 -20 24 -31 24
-105 0 -73 2 -82 20 -87 30 -8 26 -45 -6 -58 -20 -7 -32 -6 -50 6 -20 13 -27
13 -60 -1 -31 -13 -45 -14 -76 -5 -21 7 -42 20 -48 31 -13 24 -13 66 0 89 12
23 79 51 120 51 23 0 30 5 30 19 0 11 -9 23 -20 26 -27 9 -60 -3 -60 -21 0 -9
-11 -14 -35 -14 -38 0 -44 14 -24 51 27 51 138 62 185 18z m286 1 c15 -18 18
-42 18 -136 l0 -114 -35 0 -34 0 -3 103 -3 102 -30 3 c-44 5 -55 -18 -55 -120
l0 -88 -35 0 -35 0 0 135 0 135 30 0 c17 0 30 -5 30 -10 0 -6 12 -4 28 5 37
21 101 13 124 -15z m524 14 c50 -24 67 -63 62 -140 -3 -50 -9 -69 -28 -89 -50
-53 -150 -53 -200 0 -32 34 -40 126 -15 178 29 61 111 84 181 51z m408 -23
c55 -55 44 -185 -19 -227 -56 -36 -163 -16 -190 37 -20 37 -19 132 1 170 34
66 151 77 208 20z m-4950 -53 l29 -82 29 82 c29 81 30 82 64 82 19 0 34 -3 34
-7 0 -5 -21 -66 -47 -136 l-48 -128 -35 3 c-34 3 -34 4 -77 118 -24 63 -45
123 -49 133 -4 14 1 17 33 17 l38 0 29 -82z m1246 -53 l0 -135 -35 0 -35 0 0
135 0 135 35 0 35 0 0 -135z m1590 0 l0 -135 -40 0 -40 0 0 135 0 135 40 0 40
0 0 -135z m380 49 c0 -95 10 -124 43 -124 40 0 47 18 47 117 l0 93 40 0 40 0
0 -135 0 -135 -35 0 c-19 0 -35 4 -35 9 0 5 -17 3 -38 -6 -34 -13 -43 -13 -75
1 -48 20 -57 45 -57 167 l0 99 35 0 35 0 0 -86z m2766 -1450 c19 -9 44 -31 57
-48 l22 -31 0 -2050 0 -2050 -22 -31 c-13 -17 -38 -39 -57 -48 -31 -15 -299
-16 -3186 -16 -2887 0 -3155 1 -3186 16 -19 9 -44 31 -57 48 l-22 31 0 2050 0
2050 22 31 c12 17 37 38 55 47 30 15 302 17 3186 17 2890 0 3157 -1 3188 -16z"/>
<path d="M5932 6296 c-18 -62 3 -116 44 -116 44 0 67 64 44 124 -8 21 -16 26
-44 26 -31 0 -36 -4 -44 -34z"/>
<path d="M7349 6381 c-24 -25 -29 -38 -29 -80 0 -82 30 -121 95 -121 67 0 97
35 97 110 0 65 -9 88 -42 105 -46 24 -88 19 -121 -14z"/>
<path d="M6980 6295 l0 -105 51 0 c66 0 86 12 99 61 14 49 5 96 -23 127 -16
17 -31 22 -74 22 l-53 0 0 -105z"/>
<path d="M1517 6223 c-4 -3 -7 -15 -7 -25 0 -13 8 -18 28 -18 30 0 52 16 52
37 0 14 -61 19 -73 6z"/>
<path d="M2020 6215 c-16 -20 -4 -35 29 -35 29 0 51 16 51 37 0 18 -64 17 -80
-2z"/>
<path d="M3162 6318 c-16 -16 -16 -110 0 -126 7 -7 24 -12 40 -12 33 0 48 24
48 75 0 51 -15 75 -48 75 -16 0 -33 -5 -40 -12z"/>
<path d="M4070 6215 c-16 -20 -4 -35 29 -35 29 0 51 16 51 37 0 18 -64 17 -80
-2z"/>
<path d="M4740 6311 c-5 -11 -10 -36 -10 -56 0 -52 15 -75 50 -75 19 0 33 7
40 19 14 27 13 104 -2 119 -19 19 -66 15 -78 -7z"/>
<path d="M5390 6215 c-16 -20 -4 -35 29 -35 29 0 51 16 51 37 0 18 -64 17 -80
-2z"/>
<path d="M6237 6333 c-36 -9 -49 -91 -21 -131 11 -15 25 -22 50 -22 28 0 36 5
45 28 11 28 6 99 -8 112 -12 12 -46 18 -66 13z"/>
<path d="M6620 6333 c-26 -9 -40 -36 -40 -76 0 -56 14 -77 54 -77 37 0 50 11
60 54 7 29 -9 96 -24 96 -5 0 -14 2 -22 4 -7 3 -20 2 -28 -1z"/>
<path d="M2180 4210 c0 -38 -1 -40 -21 -30 -53 29 -109 -20 -109 -95 0 -74 56
-124 107 -97 10 6 31 8 46 5 l27 -5 0 131 0 131 -25 0 c-23 0 -25 -4 -25 -40z
m-19 -70 c28 -15 27 -95 -1 -110 -14 -8 -26 -8 -40 0 -27 14 -29 94 -2 109 21
13 20 13 43 1z"/>
<path d="M2390 4210 c0 -37 -2 -40 -19 -30 -32 16 -60 12 -86 -15 -21 -20 -25
-34 -25 -80 0 -47 4 -60 26 -82 21 -20 31 -24 57 -18 18 3 47 6 65 6 l32 -1 0
130 0 130 -25 0 c-23 0 -25 -4 -25 -40z m-16 -76 c21 -20 21 -78 0 -98 -34
-34 -64 -11 -64 49 0 60 30 83 64 49z"/>
<path d="M1840 4123 c-25 -64 -46 -120 -48 -125 -2 -4 7 -8 21 -8 16 0 28 8
35 25 10 22 18 25 67 25 50 0 56 -2 65 -25 7 -18 17 -25 36 -25 21 0 25 4 20
18 -4 9 -26 65 -49 124 -40 104 -43 108 -72 108 -30 0 -32 -3 -75 -117z m109
-25 c1 -5 -15 -8 -34 -8 -19 0 -35 2 -35 5 0 2 8 24 17 47 l17 42 17 -40 c10
-21 18 -42 18 -46z"/>
<path d="M2550 4163 c0 -111 13 -151 55 -169 44 -18 79 -18 116 1 40 21 49 50
49 156 0 88 0 89 -25 89 -25 0 -25 -1 -25 -88 0 -102 -11 -125 -59 -125 -48 0
-56 14 -59 118 -4 93 -5 95 -28 95 -23 0 -24 -2 -24 -77z"/>
<path d="M2840 4177 c-28 -14 -39 -59 -19 -83 6 -8 32 -19 56 -26 32 -8 43
-15 41 -27 -4 -22 -56 -27 -64 -7 -7 18 -54 22 -54 6 0 -6 12 -23 26 -37 22
-22 32 -25 72 -20 94 10 99 101 7 123 -36 8 -57 23 -49 35 9 15 54 10 60 -6 8
-19 54 -20 54 -1 0 22 -49 56 -79 56 -14 0 -37 -6 -51 -13z"/>
<path d="M3040 4178 c-36 -19 -52 -56 -46 -108 5 -55 41 -90 90 -90 39 0 86
33 86 61 0 25 -32 25 -48 -1 -16 -26 -58 -26 -72 -1 -5 11 -10 22 -10 25 0 3
29 6 65 6 l65 0 0 34 c0 19 -8 43 -17 55 -22 27 -80 36 -113 19z m64 -34 c33
-13 17 -34 -24 -34 -45 0 -47 2 -24 24 17 18 24 19 48 10z"/>
<path d="M3262 4181 c-7 -4 -24 -6 -38 -3 l-24 4 0 -96 c0 -96 0 -96 25 -96
24 0 25 2 25 70 l0 71 31 6 c23 4 29 10 27 27 -3 23 -25 31 -46 17z"/>
<path d="M1810 3620 c0 -94 18 -108 22 -17 l3 62 45 -62 c25 -34 51 -63 58
-63 8 0 12 23 12 80 0 47 -4 80 -10 80 -5 0 -10 -25 -10 -55 0 -30 -3 -55 -7
-55 -5 0 -26 25 -47 55 -55 77 -66 73 -66 -25z"/>
<path d="M2003 3663 c-7 -2 -13 -12 -13 -21 0 -12 3 -13 12 -4 20 20 58 15 58
-8 0 -15 -7 -20 -29 -20 -33 0 -54 -21 -49 -47 3 -15 14 -18 61 -19 42 -1 55
2 48 9 -6 6 -11 29 -11 52 0 23 -5 46 -12 53 -12 12 -43 15 -65 5z m57 -78 c0
-17 -36 -39 -50 -30 -14 9 -12 32 3 38 24 10 47 7 47 -8z"/>
<path d="M2150 3661 c-8 -6 -18 -7 -22 -5 -4 3 -8 -22 -8 -55 0 -75 18 -81 22
-8 3 45 6 52 26 55 21 3 22 0 22 -52 0 -31 5 -56 10 -56 6 0 10 20 10 44 0 46
19 72 45 62 11 -4 15 -20 15 -56 0 -28 5 -50 10 -50 7 0 10 22 8 56 -3 66 -23
88 -59 66 -15 -10 -24 -11 -32 -3 -13 13 -27 14 -47 2z"/>
<path d="M2336 3654 c-19 -18 -21 -85 -4 -102 23 -23 88 -12 88 16 0 13 -3 13
-19 -2 -24 -22 -61 -13 -61 15 0 16 7 19 46 19 42 0 45 1 39 23 -14 44 -60 61
-89 31z m67 -18 c8 -19 -1 -26 -35 -26 -26 0 -37 17 -21 33 12 12 51 7 56 -7z"/>
<path d="M2460 3650 c0 -5 5 -10 10 -10 6 0 10 5 10 10 0 6 -4 10 -10 10 -5 0
-10 -4 -10 -10z"/>
<path d="M2460 3550 c0 -5 5 -10 10 -10 6 0 10 5 10 10 0 6 -4 10 -10 10 -5 0
-10 -4 -10 -10z"/>
<path d="M2310 2670 c0 -5 5 -10 10 -10 6 0 10 5 10 10 0 6 -4 10 -10 10 -5 0
-10 -4 -10 -10z"/>
<path d="M2360 2595 c0 -50 4 -85 10 -85 6 0 10 35 10 85 0 50 -4 85 -10 85
-6 0 -10 -35 -10 -85z"/>
<path d="M1810 2590 l0 -80 65 0 c37 0 65 4 65 10 0 6 -25 10 -56 10 -54 0
-55 0 -52 28 3 24 8 28 53 33 l50 6 -53 1 c-52 2 -53 3 -50 30 3 25 7 27 58
33 l55 6 -67 1 -68 2 0 -80z"/>
<path d="M2005 2630 c-3 -5 -12 -7 -20 -3 -12 4 -15 -6 -15 -56 0 -34 4 -61
10 -61 6 0 10 19 10 43 0 51 11 70 36 65 15 -2 20 -14 22 -56 4 -67 20 -67 24
1 3 45 6 52 25 55 24 3 29 -8 36 -78 2 -20 4 -8 5 27 2 53 -1 62 -18 68 -10 3
-28 1 -39 -4 -13 -7 -22 -8 -26 -1 -8 13 -42 13 -50 0z"/>
<path d="M2193 2633 c-7 -2 -13 -12 -13 -21 0 -12 3 -13 12 -4 20 20 58 15 58
-8 0 -15 -7 -20 -29 -20 -33 0 -54 -21 -49 -47 3 -15 14 -18 61 -19 42 -1 55
2 48 9 -6 6 -11 29 -11 52 0 23 -5 46 -12 53 -12 12 -43 15 -65 5z m57 -78 c0
-17 -29 -34 -47 -28 -31 11 -10 40 30 42 9 1 17 -6 17 -14z"/>
<path d="M2310 2570 c0 -33 4 -60 10 -60 6 0 10 27 10 60 0 33 -4 60 -10 60
-6 0 -10 -27 -10 -60z"/>
<path d="M2420 2620 c0 -5 5 -10 10 -10 6 0 10 5 10 10 0 6 -4 10 -10 10 -5 0
-10 -4 -10 -10z"/>
<path d="M2420 2520 c0 -5 5 -10 10 -10 6 0 10 5 10 10 0 6 -4 10 -10 10 -5 0
-10 -4 -10 -10z"/>
<path d="M1815 1645 c-25 -24 -25 -24 -25 -240 0 -216 0 -216 25 -240 l24 -25
2741 0 2741 0 24 25 c25 24 25 24 25 240 0 216 0 216 -25 240 l-24 25 -2741 0
-2741 0 -24 -25z m2605 -165 c0 -5 -18 -10 -40 -10 -33 0 -40 -3 -40 -20 0
-17 7 -20 41 -20 24 0 38 -4 34 -10 -3 -5 -22 -10 -41 -10 -30 0 -34 -3 -34
-25 0 -22 4 -25 39 -25 22 0 43 -4 46 -10 4 -6 -17 -10 -54 -10 l-61 0 0 75 0
75 55 0 c30 0 55 -4 55 -10z m260 0 c0 -5 -7 -10 -15 -10 -8 0 -15 5 -15 10 0
6 7 10 15 10 8 0 15 -4 15 -10z m-152 -87 c2 -32 -1 -53 -7 -53 -6 0 -11 18
-11 40 0 28 -5 43 -16 47 -21 8 -34 -13 -34 -54 0 -18 -4 -33 -10 -33 -5 0
-10 24 -10 54 l0 54 43 -2 42 -1 3 -52z m47 27 c4 -16 10 -30 14 -30 3 0 12
14 18 30 13 35 38 42 27 8 -17 -54 -36 -89 -46 -86 -6 2 -19 28 -29 56 -14 42
-15 52 -4 52 7 0 16 -13 20 -30z m105 -25 c0 -42 -3 -55 -15 -55 -12 0 -15 13
-15 55 0 42 3 55 15 55 12 0 15 -13 15 -55z m98 43 c7 -7 12 -32 12 -56 l0
-43 -47 3 c-44 3 -48 5 -48 28 0 20 7 27 33 35 44 13 41 29 -5 20 -33 -6 -35
-5 -24 9 16 19 62 21 79 4z m92 3 c0 -5 -9 -11 -20 -14 -16 -4 -20 -14 -20
-46 0 -23 -4 -41 -10 -41 -5 0 -10 25 -10 55 0 54 0 55 30 55 17 0 30 -4 30
-9z"/>
<path d="M4725 1379 c-4 -6 -4 -13 -1 -16 8 -8 36 5 36 17 0 13 -27 13 -35 -1z"/>
</g>
</svg>
