<?xml version="1.0" standalone="no"?>
<!DOCTYPE svg PUBLIC "-//W3C//DTD SVG 20010904//EN"
 "http://www.w3.org/TR/2001/REC-SVG-20010904/DTD/svg10.dtd">
<svg version="1.0" xmlns="http://www.w3.org/2000/svg"
 width="1460.000000pt" height="737.000000pt" viewBox="0 0 1460.000000 737.000000"
 preserveAspectRatio="xMidYMid meet">

<g transform="translate(0.000000,737.000000) scale(0.100000,-0.100000)"
fill="#000000" stroke="none">
<path d="M0 6775 l0 -595 1040 0 1040 0 -4 -22 c-17 -81 -27 -194 -36 -413
-11 -261 -18 -315 -44 -344 -9 -10 -16 -22 -16 -26 0 -5 -17 -26 -37 -47 -21
-22 -42 -55 -48 -76 -8 -27 -17 -38 -34 -40 -27 -4 -50 22 -51 57 0 30 -56
101 -80 101 -21 0 -36 17 -42 45 -2 11 -13 21 -25 23 -12 2 -28 13 -36 26 -9
13 -29 29 -46 35 -16 7 -32 20 -35 29 -3 10 -3 -1 -1 -22 2 -22 -1 -46 -7 -53
-7 -9 -7 -13 1 -13 6 0 11 -9 11 -20 0 -11 5 -20 10 -20 6 0 10 -7 10 -15 0
-9 18 -38 40 -66 22 -28 40 -57 40 -65 0 -8 5 -14 11 -14 6 0 29 -20 50 -44
22 -24 59 -56 84 -70 41 -24 45 -30 45 -64 0 -74 -40 -76 -71 -4 -16 37 -22
42 -34 32 -24 -20 -16 -80 10 -80 17 0 38 -52 39 -98 1 -34 -1 -37 -29 -40
-27 -3 -33 1 -44 32 -9 21 -19 32 -28 29 -8 -3 -13 2 -13 13 0 23 -56 52 -71
37 -6 -6 -6 -26 0 -54 17 -72 14 -89 -12 -89 -26 0 -51 23 -61 58 -4 12 -13
22 -21 22 -7 0 -16 11 -19 25 -9 35 -18 31 -41 -17 -12 -24 -33 -49 -47 -57
-24 -14 -29 -13 -66 13 -31 21 -41 35 -46 65 -3 21 -16 49 -29 63 -13 14 -29
38 -35 54 -7 16 -23 34 -35 39 -12 6 -23 20 -25 31 -2 12 -12 30 -23 40 -10 9
-19 23 -19 30 0 8 -12 17 -27 20 -36 9 -53 22 -53 44 0 9 -8 24 -19 34 -14 12
-20 37 -25 102 -3 47 -13 98 -21 114 -8 16 -15 39 -15 50 0 12 -7 28 -15 36
-11 12 -15 39 -15 109 0 105 -15 192 -37 217 -11 13 -12 21 -3 37 9 17 8 22
-5 26 -8 3 -22 7 -29 9 -18 6 -35 -36 -17 -42 8 -3 8 -9 0 -24 -7 -14 -11 -77
-10 -172 1 -149 8 -192 48 -306 17 -51 32 -103 39 -140 3 -14 9 -34 14 -45 5
-11 11 -29 14 -40 7 -27 34 -105 46 -130 19 -42 62 -150 65 -164 11 -53 27
-105 50 -166 15 -38 34 -88 42 -110 8 -22 29 -78 48 -125 18 -47 38 -119 44
-160 21 -158 63 -303 123 -423 21 -42 54 -119 72 -170 237 -641 340 -848 497
-1003 31 -31 32 -32 11 -43 -32 -17 -55 -13 -81 15 -18 19 -26 22 -32 12 -5
-7 -9 -18 -9 -24 0 -9 51 -51 118 -96 36 -24 46 -46 31 -64 -20 -24 8 -62 66
-90 27 -13 63 -32 78 -42 28 -19 127 -153 127 -172 0 -6 4 -10 9 -10 5 0 15
-21 22 -47 9 -28 21 -48 32 -51 10 -3 16 -11 13 -18 -3 -8 -1 -14 4 -14 5 0
14 -16 21 -35 7 -19 19 -35 26 -35 8 0 16 -7 19 -15 3 -8 14 -17 25 -20 10 -4
19 -13 19 -21 0 -8 7 -14 15 -14 8 0 15 -7 15 -15 0 -8 7 -15 15 -15 8 0 15
-5 15 -10 0 -6 11 -16 25 -22 14 -6 25 -17 25 -25 0 -7 9 -13 21 -13 14 0 24
-10 32 -30 6 -16 17 -30 24 -30 7 0 13 -5 13 -10 0 -6 22 -21 50 -33 27 -12
50 -27 50 -33 0 -7 9 -14 20 -17 12 -3 20 -14 20 -26 0 -12 6 -21 15 -21 8 0
15 -3 15 -7 0 -11 50 -33 72 -33 10 0 18 -7 18 -15 0 -8 9 -15 19 -15 10 0 21
-7 25 -15 3 -8 12 -15 19 -15 8 0 22 -9 32 -20 10 -11 24 -20 32 -20 7 0 13
-7 13 -15 0 -8 9 -15 20 -15 11 0 20 -4 20 -10 0 -5 6 -10 13 -10 7 0 24 -11
39 -25 15 -14 32 -25 38 -25 5 0 10 -4 10 -9 0 -5 15 -13 32 -16 18 -4 49 -18
70 -31 21 -13 42 -24 48 -24 5 0 10 -4 10 -10 0 -5 9 -10 20 -10 11 0 20 -7
20 -15 0 -9 6 -15 13 -14 33 4 57 -2 57 -16 0 -8 12 -17 28 -21 15 -3 33 -8
41 -10 7 -2 48 -11 90 -20 42 -8 97 -26 124 -40 26 -14 55 -24 65 -21 9 2 28
-2 42 -8 16 -8 105 -13 255 -14 196 -2 282 3 400 23 11 2 39 13 62 26 25 12
70 24 105 27 35 4 82 14 106 25 24 10 52 18 63 18 25 0 25 5 -15 80 -61 116
-68 219 -24 337 23 62 101 152 164 189 l44 26 0 80 c0 78 1 82 36 121 36 40
86 135 77 150 -2 4 -14 7 -26 7 -40 1 -90 61 -69 82 13 13 32 2 32 -17 0 -18
31 -35 62 -35 16 0 30 10 42 31 22 38 13 49 -52 68 -80 23 -102 67 -58 118 21
24 32 28 76 28 45 0 55 -4 76 -29 26 -29 29 -61 6 -61 -7 0 -18 11 -25 25 -10
20 -21 26 -57 28 -33 3 -47 -1 -57 -14 -20 -27 1 -51 59 -69 29 -9 58 -18 64
-21 7 -3 22 12 35 33 13 21 52 73 86 115 35 42 63 84 63 92 0 9 13 25 30 38
16 12 33 30 36 41 5 15 12 18 38 13 28 -5 38 -1 79 38 26 25 58 46 74 48 l28
4 -24 10 c-24 11 -24 11 -3 16 12 4 25 2 28 -3 3 -5 12 -9 21 -9 15 0 14 2 0
18 -22 24 -21 35 2 56 18 16 20 15 47 -25 55 -81 86 -104 97 -75 4 9 0 12 -11
10 -12 -3 -28 12 -51 46 -19 28 -32 53 -29 55 7 8 38 -6 38 -16 0 -11 60 -69
71 -69 4 0 11 5 14 11 14 21 159 -34 171 -66 6 -14 48 -29 74 -27 8 1 0 -5
-18 -14 -18 -8 -37 -12 -43 -9 -5 4 -9 1 -9 -4 0 -10 105 -17 167 -12 12 1 24
-3 28 -9 3 -5 21 -10 38 -10 18 0 38 -4 46 -9 22 -14 -16 -22 -84 -17 -33 2
-51 2 -40 -1 47 -12 36 -23 -25 -25 -59 -1 -55 -2 35 -10 55 -4 129 -10 165
-12 36 -2 82 -7 103 -11 48 -9 184 5 147 15 l-25 7 25 10 c14 6 61 18 105 27
44 9 94 21 111 27 17 5 38 7 47 3 9 -3 42 4 75 15 32 12 66 21 75 21 9 0 17 4
17 9 0 15 82 25 203 25 66 -1 112 3 105 7 -8 6 -1 9 22 10 30 1 26 3 -25 15
-156 37 -372 46 -461 19 -37 -11 -68 -12 -130 -6 -97 10 -111 16 -91 39 42 50
22 74 -60 76 -43 0 -61 5 -71 19 -11 14 -21 16 -48 11 -26 -5 -34 -3 -34 8 0
17 -58 44 -115 53 -22 4 -47 13 -55 20 -8 7 -34 21 -57 30 -24 10 -43 23 -43
30 0 18 -30 40 -83 59 -27 10 -51 24 -54 32 -3 8 -19 14 -39 14 -24 0 -32 4
-28 13 4 10 -8 14 -46 15 -28 0 -67 6 -86 12 -26 9 -47 9 -79 1 -24 -6 -76
-11 -114 -11 -77 0 -90 -7 -123 -68 -9 -18 -39 -45 -65 -62 -74 -47 -144 -65
-258 -64 -122 1 -184 21 -292 94 -67 45 -75 49 -69 28 3 -13 9 -50 12 -83 5
-51 3 -64 -14 -85 -17 -21 -24 -23 -48 -15 -66 24 -86 133 -40 222 26 51 33
53 15 6 -6 -15 -14 -48 -19 -73 -14 -78 34 -154 75 -120 19 16 19 74 0 136 -8
27 -15 59 -15 71 0 13 -8 24 -21 28 -20 7 -32 -2 -42 -30 -3 -9 -117 10 -209
36 -33 9 -38 14 -38 39 0 42 -12 43 -49 4 -18 -18 -49 -39 -67 -46 -19 -7 -34
-19 -35 -28 0 -10 -2 -11 -6 -2 -2 6 -12 12 -21 12 -12 0 -34 -36 -70 -112
-64 -133 -167 -274 -289 -396 -7 -7 -18 -21 -25 -30 -11 -15 -66 -61 -149
-124 -23 -18 -39 -23 -39 -12 0 3 66 70 147 147 194 188 264 278 324 420 22
50 39 94 39 97 0 4 -26 10 -58 13 -120 10 -202 83 -202 178 0 27 2 29 40 29
34 0 40 -3 40 -21 0 -34 31 -77 70 -96 47 -24 163 -23 208 0 17 10 32 21 32
25 0 4 -37 20 -83 36 -146 51 -281 106 -314 129 -18 12 -35 34 -39 49 -5 26
-59 76 -70 66 -2 -3 -3 -79 -2 -169 3 -157 4 -163 19 -134 9 17 22 53 28 80 7
28 16 57 22 65 21 31 -4 -75 -31 -135 -16 -33 -31 -68 -34 -77 -4 -13 -16 -18
-46 -18 -35 0 -40 3 -40 23 l0 24 -57 -29 c-53 -27 -65 -29 -144 -26 -109 4
-158 32 -194 111 -22 46 -25 70 -29 222 -2 94 -2 212 1 263 l6 92 33 0 32 0 4
-252 c3 -231 5 -256 23 -287 34 -57 68 -76 138 -76 77 1 135 31 166 85 19 34
21 53 21 187 l0 150 -48 74 c-27 41 -58 97 -70 124 -19 47 -23 50 -61 53 -23
2 -41 7 -41 11 0 4 11 23 25 42 25 32 26 38 19 125 -7 91 11 264 27 264 4 0
13 -26 19 -57 7 -32 21 -79 31 -105 10 -26 16 -54 13 -63 -5 -12 3 -15 40 -15
25 0 46 -2 46 -4 0 -3 -9 -20 -20 -38 -13 -23 -16 -38 -10 -48 5 -8 10 -26 10
-39 0 -27 15 -41 84 -77 48 -26 136 -83 168 -112 15 -13 20 -12 48 12 62 52
173 69 268 41 91 -27 152 -97 152 -175 l0 -41 -37 3 c-35 3 -38 6 -44 40 -7
47 -24 66 -74 89 -71 33 -205 17 -221 -25 -6 -17 39 -61 115 -112 52 -35 282
-164 292 -164 4 0 10 12 13 26 7 25 9 26 51 19 l45 -6 0 175 0 176 40 0 40 0
2 -187 3 -188 30 -3 c17 -2 35 -8 42 -14 20 -16 33 1 33 46 0 76 21 160 55
222 l33 62 -36 6 c-79 12 -181 73 -266 157 l-81 81 -80 -3 c-153 -6 -182 -2
-210 28 -14 15 -25 33 -25 39 0 6 -22 25 -50 43 -48 31 -50 34 -51 79 -1 61
-7 95 -19 102 -11 7 -31 168 -30 238 1 24 -5 58 -12 77 -9 27 -9 38 0 47 7 7
12 27 12 45 0 32 16 61 68 127 13 16 21 35 18 42 -8 21 10 70 45 124 32 49 89
93 159 123 30 13 32 15 12 16 -13 1 -36 9 -50 20 -42 29 -90 31 -134 7 -32
-16 -41 -18 -47 -7 -6 9 -30 13 -77 12 -60 0 -72 -4 -89 -25 -11 -13 -34 -27
-52 -31 -17 -3 -37 -13 -44 -21 -6 -8 -24 -14 -40 -14 -26 0 -29 -3 -29 -34 0
-32 -2 -34 -32 -34 -61 1 -68 -2 -68 -22 0 -13 -7 -20 -20 -20 -19 0 -25 -14
-22 -52 2 -17 -5 -20 -53 -22 -16 -1 -19 -7 -17 -30 5 -42 -15 -48 -63 -20
-23 13 -49 24 -57 24 -56 0 -201 114 -234 183 -10 20 -21 37 -26 37 -4 0 -8 7
-8 15 0 9 -9 15 -21 15 -28 0 -86 57 -100 98 -15 46 4 84 39 80 38 -5 36 26
-5 67 -19 19 -45 38 -58 41 -25 6 -36 49 -25 95 4 16 -1 36 -15 59 -47 77 -77
157 -86 230 -5 41 -13 76 -18 78 -5 2 -19 12 -32 23 -28 24 -34 24 -59 -3 -15
-17 -20 -31 -16 -50 3 -16 9 -42 12 -58 4 -21 1 -37 -9 -48 -19 -23 -67 -114
-67 -129 0 -15 -40 -44 -52 -37 -4 3 -8 12 -8 20 0 8 -10 24 -21 35 -18 18
-20 29 -15 65 7 57 -3 134 -20 141 -15 5 -48 -22 -41 -34 3 -5 1 -18 -4 -30
-7 -19 -13 -21 -44 -16 -25 4 -40 2 -45 -7 -14 -23 -40 -3 -40 32 0 18 -14 60
-30 93 -19 37 -30 75 -30 102 0 23 -4 53 -10 67 l-10 26 6115 0 6115 0 0 595
0 595 -7300 0 -7300 0 0 -595z m2097 277 c65 -34 110 -78 140 -140 23 -47 28
-70 28 -132 0 -122 -56 -213 -168 -272 -61 -33 -193 -33 -257 1 -61 32 -107
76 -138 136 -23 43 -27 62 -27 135 0 70 4 93 24 130 41 79 105 133 191 161 45
15 162 4 207 -19z m1158 -142 c0 -20 -6 -26 -26 -28 -30 -4 -46 22 -28 45 20
23 54 12 54 -17z m155 -5 c0 -20 -5 -25 -25 -25 -16 0 -25 -6 -25 -15 0 -11
11 -15 39 -15 40 0 40 0 62 -60 12 -33 25 -62 28 -65 4 -2 17 25 30 61 21 59
25 64 52 64 l29 0 -21 -52 c-12 -29 -32 -82 -46 -118 -32 -84 -47 -100 -93
-100 -20 0 -40 3 -43 6 -13 13 14 44 38 44 31 0 31 8 -4 95 -21 52 -34 71 -50
73 -20 3 -21 -1 -21 -77 l0 -81 -30 0 -30 0 0 80 c0 47 -4 80 -10 80 -5 0 -10
11 -10 25 0 14 5 25 10 25 6 0 10 8 10 18 0 36 29 62 71 62 35 0 39 -3 39 -25z
m-864 -7 c13 -12 14 -20 5 -37 -11 -20 -13 -20 -36 -5 -34 22 -79 15 -83 -13
-3 -19 5 -24 49 -37 69 -21 89 -40 89 -86 0 -51 -34 -82 -92 -82 -78 1 -128
31 -103 65 12 17 15 18 38 2 36 -23 102 -17 102 10 0 15 -12 24 -55 37 -30 10
-63 27 -72 39 -26 31 -23 75 8 106 23 23 32 25 80 21 31 -3 62 -12 70 -20z
m7114 -123 c0 -122 -2 -145 -15 -145 -13 0 -15 23 -15 145 0 122 2 145 15 145
13 0 15 -23 15 -145z m-6532 103 c3 -22 9 -28 28 -28 19 0 24 -5 24 -25 0 -20
-5 -25 -25 -25 -24 0 -25 -3 -25 -55 0 -52 1 -55 26 -55 21 0 25 -4 22 -22 -2
-18 -11 -24 -36 -26 -54 -5 -72 19 -72 95 0 35 -4 63 -10 63 -5 0 -10 11 -10
25 0 14 5 25 10 25 6 0 10 14 10 31 0 27 3 30 28 27 21 -2 28 -9 30 -30z
m4592 -98 l0 -100 -38 0 c-49 0 -71 17 -78 60 -8 46 27 94 62 87 21 -4 24 0
24 24 0 19 5 29 15 29 12 0 15 -18 15 -100z m-2032 74 c25 -17 30 -65 8 -83
-8 -7 -30 -15 -50 -18 -33 -5 -36 -8 -36 -39 0 -24 -5 -34 -15 -34 -12 0 -15
17 -15 95 l0 95 43 0 c23 0 53 -7 65 -16z m482 7 c0 -14 -18 -23 -30 -16 -6 4
-8 11 -5 16 8 12 35 12 35 0z m1215 -68 c37 -103 45 -110 45 -35 0 35 4 62 10
62 6 0 10 -36 10 -89 0 -72 -3 -90 -16 -95 -26 -10 -44 -7 -44 9 0 9 6 12 15
9 9 -4 15 0 15 10 0 9 -5 16 -10 16 -6 0 -16 11 -22 25 -9 19 -19 25 -45 25
-27 0 -35 -5 -43 -25 -10 -27 -30 -34 -30 -11 0 29 62 176 75 176 7 0 25 -35
40 -77z m75 68 c0 -14 -18 -23 -30 -16 -6 4 -8 11 -5 16 8 12 35 12 35 0z
m1265 -5 c14 -10 17 -21 13 -47 -4 -20 -1 -41 6 -51 10 -14 14 -14 31 -2 10 8
29 14 42 14 14 0 23 6 23 15 0 9 -9 15 -24 15 -13 0 -26 -7 -30 -15 -8 -23
-28 -18 -24 7 4 31 51 45 83 24 22 -14 25 -24 25 -74 l0 -58 -45 -2 c-28 -1
-49 4 -59 14 -14 14 -18 14 -38 0 -12 -9 -42 -16 -65 -16 l-43 0 0 95 0 95 43
0 c24 0 51 -6 62 -14z m195 -1 c0 -8 -7 -15 -15 -15 -8 0 -15 7 -15 15 0 8 7
15 15 15 8 0 15 -7 15 -15z m1155 -80 c0 -62 -4 -90 -12 -92 -10 -4 -13 19
-13 92 0 73 3 96 13 93 8 -3 12 -31 12 -93z m2100 85 c4 -6 -13 -10 -44 -10
-50 0 -51 -1 -51 -30 0 -28 2 -30 40 -30 22 0 40 -4 40 -10 0 -5 -18 -10 -40
-10 -39 0 -40 -1 -40 -35 l0 -35 50 0 50 0 0 59 0 58 41 7 c61 10 79 -10 79
-86 0 -45 -3 -58 -15 -58 -12 0 -15 13 -15 55 0 42 -4 57 -16 62 -24 9 -44
-24 -44 -72 l0 -41 -80 -3 -80 -2 0 96 0 95 59 0 c33 0 63 -4 66 -10z m-9408
-26 c32 -20 48 -82 33 -128 -18 -57 -70 -82 -127 -62 -21 7 -23 4 -23 -28 0
-33 -2 -36 -30 -36 l-30 0 0 135 0 135 30 0 c17 0 30 -4 30 -9 0 -6 12 -3 28
4 28 15 52 12 89 -11z m207 12 c45 -19 66 -52 66 -102 0 -112 -138 -149 -203
-54 -27 38 -22 84 13 124 27 30 40 37 83 45 4 0 23 -5 41 -13z m9376 -6 c0
-11 7 -20 15 -20 8 0 15 -4 15 -10 0 -5 -7 -10 -16 -10 -23 0 -16 -94 9 -98
15 -3 17 5 17 56 l0 60 37 7 c24 4 39 3 41 -4 3 -8 9 -8 24 0 29 16 67 2 78
-27 6 -14 10 -45 10 -68 l0 -43 -49 -1 c-54 -2 -75 13 -69 50 2 18 13 25 44
33 25 6 39 15 37 23 -7 18 -53 15 -53 -3 0 -8 -7 -15 -15 -15 -8 0 -15 7 -15
16 0 9 -7 14 -17 12 -14 -2 -19 -15 -21 -59 l-3 -57 -39 0 c-47 -1 -60 16 -60
77 0 22 -5 42 -12 44 -9 4 -10 8 -2 14 6 4 13 16 17 26 9 23 27 22 27 -3z
m-9090 -95 l0 -105 -30 0 -30 0 0 105 0 105 30 0 30 0 0 -105z m2540 71 c0 -8
-10 -16 -22 -18 -20 -3 -23 -10 -26 -60 -2 -43 -7 -58 -17 -58 -12 0 -15 15
-15 69 0 64 2 70 23 74 44 8 57 7 57 -7z m88 -2 c12 -8 22 -26 22 -40 0 -22
-4 -24 -45 -24 -33 0 -45 -4 -45 -15 0 -22 38 -39 55 -25 8 7 20 8 26 4 16
-10 -17 -34 -48 -34 -61 0 -86 90 -37 129 32 25 43 26 72 5z m137 5 c6 0 22 3
36 6 41 10 59 -16 59 -86 0 -46 -3 -59 -15 -59 -12 0 -15 13 -15 60 0 53 -2
60 -20 60 -25 0 -40 -29 -40 -79 0 -23 -4 -41 -10 -41 -5 0 -10 20 -10 44 0
57 -8 76 -30 76 -22 0 -30 -19 -30 -76 0 -32 -4 -44 -15 -44 -12 0 -15 14 -15
69 0 68 1 70 28 74 15 2 36 2 47 0 11 -2 25 -4 30 -4z m380 1 c4 -7 13 -6 27
1 26 14 65 4 78 -21 14 -27 9 -112 -7 -118 -9 -2 -13 11 -13 45 0 56 -10 76
-36 71 -16 -3 -20 -14 -22 -61 -2 -42 -7 -57 -17 -57 -12 0 -15 14 -15 60 0
53 -2 60 -20 60 -25 0 -40 -29 -40 -80 0 -29 -4 -40 -12 -38 -8 3 -14 29 -16
71 -3 65 -3 66 25 70 51 8 62 7 68 -3z m1423 -6 c18 -13 22 -25 22 -73 l0 -58
-47 -1 c-51 -1 -73 10 -73 39 0 22 37 49 68 49 14 0 22 5 20 13 -7 20 -41 21
-55 1 -11 -14 -15 -15 -26 -5 -10 10 -7 16 12 32 28 23 49 24 79 3z m1310 0
c18 -13 22 -25 22 -73 l0 -58 -71 1 c-61 1 -72 4 -88 24 l-17 24 -17 -26 c-12
-18 -26 -26 -47 -26 l-30 0 0 70 0 70 35 0 c25 0 37 -6 46 -22 l11 -21 17 21
c11 14 26 21 49 20 18 -1 35 2 39 5 10 11 27 8 51 -9z m117 6 c3 -6 -5 -14
-19 -20 -24 -9 -26 -15 -26 -65 0 -42 -3 -55 -15 -55 -12 0 -15 14 -15 69 0
64 2 70 23 74 39 8 46 7 52 -3z m946 -11 c16 -16 19 -30 17 -71 -4 -67 -28
-79 -28 -15 0 58 -8 77 -30 77 -22 0 -30 -19 -30 -76 0 -32 -4 -44 -15 -44
-12 0 -15 14 -15 69 0 76 -4 71 68 80 6 0 21 -8 33 -20z m106 15 c12 -3 25
-14 28 -24 5 -17 8 -16 30 6 28 28 42 30 73 8 25 -17 29 -44 7 -44 -8 0 -15 7
-15 15 0 9 -9 15 -25 15 -30 0 -43 -39 -26 -76 13 -29 36 -31 51 -4 14 26 30
26 30 0 0 -38 -66 -54 -97 -22 -17 16 -19 16 -35 0 -32 -32 -98 -18 -98 19 0
18 20 16 35 -4 7 -9 19 -14 29 -10 26 10 19 26 -21 44 -42 20 -54 50 -27 70
20 14 29 15 61 7z m243 -9 c0 -8 -9 -15 -19 -15 -23 0 -31 -19 -31 -76 0 -32
-4 -44 -15 -44 -12 0 -15 14 -15 69 0 64 2 70 23 74 44 9 57 7 57 -8z m88 -1
c12 -8 22 -10 22 -5 0 6 7 11 15 11 8 0 19 -17 26 -40 7 -22 15 -40 19 -40 4
0 12 18 19 40 7 23 18 40 26 40 8 0 15 -5 15 -11 0 -5 10 -3 22 5 12 9 30 16
40 16 24 0 58 -35 58 -59 0 -17 -8 -20 -51 -23 l-51 -3 19 -24 c17 -21 22 -22
42 -12 27 15 39 7 21 -14 -36 -44 -117 9 -106 70 5 29 4 29 -11 -5 -8 -19 -19
-45 -24 -58 -13 -33 -31 -23 -50 28 -9 25 -19 38 -23 32 -4 -7 -27 -12 -52
-12 -47 0 -54 -9 -28 -34 18 -19 20 -19 46 -5 25 13 35 5 18 -16 -20 -24 -66
-19 -89 11 -28 35 -26 69 4 99 28 29 42 31 73 9z m347 6 c3 -6 -5 -14 -19 -20
-22 -8 -25 -16 -28 -61 -2 -31 -8 -54 -15 -57 -10 -3 -13 15 -13 66 0 65 2 71
23 75 39 8 46 7 52 -3z m156 0 c10 -6 19 -20 19 -30 0 -23 -18 -27 -26 -5 -7
17 -40 20 -49 5 -3 -5 12 -17 34 -26 43 -17 55 -46 29 -72 -25 -25 -98 -7 -98
23 0 20 20 19 35 -2 14 -19 45 -11 45 12 0 8 -4 15 -9 15 -5 0 -22 5 -38 11
-15 7 -47 11 -70 10 -25 -2 -43 2 -43 8 0 6 16 11 35 11 23 0 42 8 59 25 27
27 47 31 77 15z m129 -10 c11 -11 20 -29 20 -40 0 -17 -7 -20 -45 -20 -48 0
-59 -16 -29 -41 12 -10 20 -10 35 -1 27 17 48 3 24 -15 -25 -17 -55 -17 -83 3
-46 32 -18 134 38 134 11 0 29 -9 40 -20z m1400 5 c0 -8 -9 -15 -19 -15 -23 0
-31 -19 -31 -77 0 -31 -4 -43 -12 -41 -8 3 -14 29 -16 71 -3 61 -1 66 20 70
45 9 58 7 58 -8z m-6500 -65 c0 -56 -3 -70 -15 -70 -12 0 -15 14 -15 70 0 56
3 70 15 70 12 0 15 -14 15 -70z m40 21 c0 -31 5 -53 15 -61 26 -21 45 5 45 61
0 37 4 49 15 49 12 0 15 -14 15 -70 l0 -70 -44 0 c-35 0 -48 5 -60 22 -21 30
-22 118 -1 118 11 0 15 -12 15 -49z m1300 -5 c0 -57 7 -70 34 -60 12 5 16 20
16 60 0 41 4 54 15 54 12 0 15 -14 15 -70 l0 -70 -43 0 c-24 0 -48 5 -55 12
-7 7 -12 38 -12 70 0 45 3 58 15 58 11 0 15 -13 15 -54z m-3900 -92 c0 -8 -6
-13 -12 -11 -7 1 -12 -4 -10 -12 3 -12 0 -12 -12 -1 -9 7 -16 18 -16 24 0 6 5
4 11 -4 9 -12 10 -11 6 6 -4 17 -1 20 14 17 11 -3 19 -12 19 -19z m17 -6 c-3
-8 -6 -5 -6 6 -1 11 2 17 5 13 3 -3 4 -12 1 -19z m-1353 -503 c-4 -10 0 -15
11 -15 11 0 15 -6 11 -17 -3 -10 -2 -41 2 -69 8 -49 -1 -91 -22 -106 -13 -9
-36 2 -36 17 0 7 -6 15 -12 18 -10 3 -9 13 5 42 14 29 17 50 11 91 -6 50 -5
54 15 54 14 0 19 -5 15 -15z m-308 -1282 c-10 -10 -19 5 -10 18 6 11 8 11 12
0 2 -7 1 -15 -2 -18z m-295 -53 c11 0 19 -7 20 -17 0 -11 3 -13 6 -5 8 20 20
14 33 -17 13 -33 10 -73 -6 -78 -23 -8 -99 100 -88 126 4 11 8 12 11 4 3 -7
13 -13 24 -13z m-304 -642 c17 -21 26 -101 11 -96 -24 8 -47 52 -41 81 6 29
15 34 30 15z m1111 -110 c22 -51 95 -219 162 -373 67 -154 125 -286 129 -293
5 -9 15 4 29 40 11 29 86 202 166 383 l145 330 43 0 43 0 3 -447 2 -448 -40 0
-40 0 -1 163 c0 89 0 248 1 352 1 116 -2 186 -8 180 -5 -5 -39 -80 -76 -165
-239 -552 -228 -530 -262 -530 -34 0 -26 -16 -259 520 -37 85 -71 159 -76 164
-5 6 -8 -139 -6 -337 l2 -347 -42 0 -43 0 0 443 c0 244 3 447 7 450 3 4 23 7
44 7 l37 0 40 -92z m-871 -490 c5 -7 17 -32 26 -55 l17 -43 -25 0 c-14 0 -28
-1 -32 -2 -5 -2 -14 14 -20 35 -18 54 7 100 34 65z m2720 -380 c-3 -8 -6 -5
-6 6 -1 11 2 17 5 13 3 -3 4 -12 1 -19z m-451 -140 c-19 -24 -43 -51 -53 -60
-10 -9 -31 -30 -47 -47 -16 -17 -33 -31 -37 -31 -18 0 10 39 76 107 76 78 118
99 61 31z m562 -58 c-9 -27 -28 -50 -28 -35 0 9 30 65 35 65 2 0 -1 -14 -7
-30z m-228 -40 c-17 -22 -32 -48 -33 -59 0 -10 -6 -17 -13 -14 -7 2 -18 -4
-25 -14 -15 -21 -49 -38 -49 -25 0 5 16 24 36 43 19 18 52 56 72 82 20 26 38
43 40 37 2 -5 -10 -28 -28 -50z m175 -50 c-4 -12 -9 -19 -12 -17 -3 3 -2 15 2
27 4 12 9 19 12 17 3 -3 2 -15 -2 -27z m-825 -130 c0 -5 -7 -10 -16 -10 -8 0
-12 5 -9 10 3 6 10 10 16 10 5 0 9 -4 9 -10z m-70 -34 c0 -13 -20 -26 -41 -26
-16 0 -9 28 9 33 29 8 32 7 32 -7z m-70 -38 c0 -18 -2 -20 -9 -8 -6 8 -7 18
-5 22 9 14 14 9 14 -14z m710 -238 c0 -183 -1 -190 -20 -190 -19 0 -20 7 -20
190 0 183 1 190 20 190 19 0 20 -7 20 -190z m110 126 l0 -64 43 15 c91 32 127
-16 127 -172 0 -88 -1 -95 -20 -95 -19 0 -20 7 -20 110 0 105 -1 110 -25 126
-28 18 -57 12 -85 -19 -17 -18 -20 -35 -20 -119 0 -91 -1 -98 -20 -98 -19 0
-20 7 -20 190 0 183 1 190 20 190 18 0 20 -7 20 -64z m-942 34 c-21 -11 -52
-22 -70 -24 -37 -4 -51 -26 -16 -26 34 -1 3 -16 -48 -24 -33 -5 -43 -3 -48 10
-8 20 1 34 21 34 9 0 25 7 35 17 19 17 71 30 128 31 l35 1 -37 -19z m720 -9
c-2 -9 -11 -17 -21 -19 -21 -4 -35 27 -17 38 19 12 42 0 38 -19z m652 11 c0
-39 -48 -55 -92 -31 -15 8 -27 8 -44 -2 -28 -15 -43 -5 -28 19 14 22 49 27 87
11 27 -11 32 -11 41 4 14 22 36 22 36 -1z m-1041 -74 c21 -46 50 -114 66 -151
18 -44 31 -63 36 -55 4 7 34 74 66 150 50 119 61 138 81 138 l22 0 -2 -177
c-3 -159 -5 -178 -20 -181 -16 -3 -18 10 -20 129 l-3 133 -59 -132 c-32 -73
-64 -132 -71 -132 -7 0 -39 61 -71 136 l-59 136 -3 -136 c-2 -107 -5 -136 -16
-136 -16 0 -24 110 -18 263 5 124 19 127 71 15z m1021 -27 c35 -25 50 -59 50
-114 0 -85 -43 -137 -113 -137 -58 0 -93 23 -112 75 -31 80 -6 162 58 191 38
17 82 11 117 -15z m283 -12 c22 -24 27 -38 25 -67 l-3 -37 -86 3 c-54 3 -89 0
-93 -7 -10 -15 19 -78 42 -90 30 -16 74 -13 101 5 35 25 49 2 15 -25 -56 -44
-142 -24 -175 40 -38 75 -15 168 51 202 46 23 87 15 123 -24z m-923 -104 c0
-113 -2 -135 -15 -135 -13 0 -15 22 -15 135 0 113 2 135 15 135 13 0 15 -22
15 -135z m-1238 77 c25 -10 9 -26 -38 -38 -39 -10 -94 -1 -94 15 0 6 47 18
110 29 3 0 13 -2 22 -6z"/>
<path d="M1811 6907 c-47 -13 -56 -23 -42 -45 7 -11 22 -12 85 -2 89 13 192 1
265 -31 40 -17 46 -18 60 -4 14 13 14 17 0 30 -49 49 -269 80 -368 52z"/>
<path d="M1842 6809 c-51 -10 -64 -17 -59 -32 2 -8 40 -12 118 -12 86 0 125
-5 159 -18 76 -31 80 -31 80 -10 0 25 -74 60 -155 73 -68 11 -83 11 -143 -1z"/>
<path d="M1840 6712 c-20 -4 -36 -14 -38 -22 -2 -14 10 -15 90 -12 77 3 103 0
148 -17 38 -14 57 -18 65 -10 11 12 -8 26 -65 47 -42 16 -151 23 -200 14z"/>
<path d="M7636 6785 c-16 -43 6 -91 37 -79 28 10 20 88 -9 92 -13 2 -24 -4
-28 -13z"/>
<path d="M5610 6814 c0 -34 1 -35 32 -32 38 4 51 34 22 55 -34 25 -54 17 -54
-23z"/>
<path d="M7332 6792 c-10 -29 -9 -32 9 -32 20 0 23 12 10 44 -7 18 -9 16 -19
-12z"/>
<path d="M8650 6819 c0 -27 3 -30 27 -27 49 5 40 57 -9 58 -13 0 -18 -8 -18
-31z"/>
<path d="M8650 6735 c0 -25 4 -35 16 -35 24 0 54 19 54 35 0 16 -30 35 -54 35
-12 0 -16 -10 -16 -35z"/>
<path d="M8794 6736 c-15 -12 -17 -17 -6 -28 15 -15 45 0 50 26 4 20 -18 21
-44 2z"/>
<path d="M2672 6794 c-15 -10 -22 -25 -22 -48 0 -39 15 -56 50 -56 35 0 50 17
50 56 0 29 -27 64 -50 64 -3 0 -16 -7 -28 -16z"/>
<path d="M2902 6794 c-26 -18 -30 -75 -7 -94 22 -18 66 -15 82 6 40 54 -21
126 -75 88z"/>
<path d="M12501 6741 c-15 -9 -9 -41 8 -41 12 0 41 29 41 41 0 11 -31 12 -49
0z"/>
<path d="M5827 6786 c-5 -12 1 -16 24 -16 20 0 29 4 27 13 -7 18 -45 20 -51 3z"/>
<path d="M7778 6743 c-19 -5 -24 -28 -8 -38 14 -9 50 13 50 30 0 15 -10 17
-42 8z"/>
<path d="M8920 6753 l1 -58 24 29 24 30 -20 28 c-11 15 -22 28 -25 28 -2 0 -4
-26 -4 -57z"/>
<path d="M9023 6784 l-22 -30 24 -30 c20 -24 23 -25 19 -8 -7 25 27 54 63 54
14 0 23 6 23 15 0 9 -9 15 -24 15 -13 0 -26 -7 -30 -15 -8 -22 -24 -18 -28 8
-3 21 -4 21 -25 -9z"/>
<path d="M9084 6736 c-15 -12 -17 -17 -6 -28 15 -15 45 0 50 26 4 20 -18 21
-44 2z"/>
<path d="M10260 6790 c0 -5 18 -18 40 -29 43 -21 52 -13 20 19 -21 21 -60 27
-60 10z"/>
<path d="M10580 6785 c-11 -13 -8 -15 19 -15 21 0 31 5 31 15 0 8 -8 15 -19
15 -10 0 -24 -7 -31 -15z"/>
<path d="M10817 6793 c-15 -14 -6 -23 23 -23 22 0 28 4 24 15 -6 15 -35 20
-47 8z"/>
<path d="M11207 6794 c-15 -15 -6 -24 24 -24 20 0 29 4 27 13 -5 14 -40 21
-51 11z"/>
<path d="M4555 2530 c-46 -18 -71 -82 -55 -142 20 -72 97 -93 144 -37 48 56
28 156 -35 178 -18 6 -32 11 -33 10 -1 0 -10 -4 -21 -9z"/>
<path d="M4811 2514 c-51 -43 -42 -54 44 -54 41 0 75 2 75 5 0 18 -26 55 -47
64 -33 15 -37 14 -72 -15z"/>
<path d="M3180 5401 c-36 -10 -42 -49 -13 -88 12 -17 23 -36 23 -42 0 -19 18
-12 39 15 27 34 27 65 -1 96 -17 19 -29 23 -48 19z"/>
<path d="M4813 5318 c-18 -20 -19 -31 -13 -78 9 -67 17 -88 41 -100 27 -15 44
20 31 63 -22 72 -22 106 1 122 21 15 21 15 -9 15 -19 0 -38 -9 -51 -22z"/>
<path d="M5150 5306 c0 -8 -8 -17 -18 -20 -21 -7 -56 -140 -50 -195 3 -33 4
-33 36 35 19 38 40 81 47 96 8 15 10 30 6 32 -4 3 -6 19 -3 36 2 18 0 30 -7
30 -6 0 -11 -6 -11 -14z"/>
<path d="M5880 5270 c-7 -4 8 -10 31 -14 70 -10 83 -26 24 -26 l-50 -1 75 -23
c91 -28 160 -63 222 -116 52 -45 94 -65 103 -50 9 15 -3 28 -43 49 -21 10 -53
36 -72 56 -19 20 -60 48 -90 62 -30 14 -62 31 -71 39 -19 17 -113 34 -129 24z"/>
<path d="M5882 5091 c-10 -6 -4 -16 25 -38 44 -35 221 -123 246 -123 9 0 17
-4 17 -8 0 -5 14 -7 30 -4 28 4 30 6 15 21 -8 10 -15 25 -15 34 0 22 -31 37
-75 37 -43 0 -90 23 -126 61 -21 22 -36 29 -66 29 -21 0 -44 -4 -51 -9z"/>
<path d="M5507 5002 c-24 -26 -47 -87 -47 -122 0 -45 18 -36 31 16 7 25 23 59
36 75 34 40 15 70 -20 31z"/>
<path d="M5780 5000 c0 -5 7 -10 16 -10 8 0 12 5 9 10 -3 6 -10 10 -16 10 -5
0 -9 -4 -9 -10z"/>
<path d="M6301 4983 c6 -33 -2 -43 -27 -37 -24 6 -25 5 -15 -14 23 -42 54 -60
180 -101 97 -31 96 -19 -7 62 -89 70 -133 101 -131 90z"/>
<path d="M5749 4978 c-1 -2 -3 -20 -4 -40 -3 -25 1 -38 11 -42 14 -5 14 -9 -2
-81 -4 -16 -3 -17 4 -5 16 25 25 97 13 105 -6 3 -11 11 -11 16 0 6 4 8 9 5 5
-4 7 3 4 14 -5 18 -21 37 -24 28z"/>
<path d="M5856 4924 c-3 -9 -6 -28 -6 -43 0 -15 -7 -36 -15 -47 -8 -10 -15
-30 -15 -43 0 -14 -7 -32 -16 -42 -14 -16 -14 -20 0 -41 14 -22 14 -26 -1 -48
-9 -13 -16 -39 -15 -57 2 -21 -4 -39 -17 -52 -12 -12 -17 -27 -14 -39 2 -11 0
-22 -5 -26 -15 -9 -23 102 -12 174 12 81 12 117 0 80 -27 -85 -33 -143 -22
-213 9 -61 16 -76 43 -100 36 -33 57 -32 171 10 48 18 68 30 64 39 -4 11 1 13
18 8 14 -3 27 1 35 10 8 9 20 16 28 16 16 0 83 67 83 83 0 5 10 23 23 40 18
26 22 45 22 105 0 67 -2 76 -26 96 -26 23 -163 66 -208 66 -12 0 -39 9 -61 20
-47 24 -46 24 -54 4z m328 -116 c18 -71 -10 -166 -60 -205 -19 -14 -37 -24
-39 -21 -2 2 2 25 10 51 8 26 12 47 9 47 -3 0 4 12 16 27 12 16 17 29 11 31
-19 6 -12 45 12 69 28 28 33 28 41 1z m-139 -67 c-5 -9 -62 -41 -72 -41 -11 0
0 31 15 39 22 13 65 14 57 2z m16 -18 c8 -49 6 -70 -4 -78 -7 -5 -19 -24 -26
-41 -7 -17 -28 -46 -46 -64 -34 -33 -35 -33 -55 -15 -32 29 -26 76 14 119 19
20 39 36 44 36 4 0 19 11 32 25 23 25 39 32 41 18z m-140 -252 c-14 -25 -51
-47 -51 -31 0 14 50 64 56 57 3 -3 1 -15 -5 -26z"/>
<path d="M4744 4872 c-23 -16 -56 -84 -68 -144 -8 -35 -19 -87 -26 -116 -10
-44 -9 -60 4 -99 9 -26 16 -56 16 -67 0 -12 7 -41 15 -65 9 -24 13 -51 10 -61
-6 -20 48 -68 76 -67 12 0 7 15 -23 66 -80 136 -97 275 -44 354 68 101 91 172
64 194 -7 7 -18 9 -24 5z"/>
<path d="M5457 4756 c-25 -20 -27 -36 -6 -36 10 0 44 49 38 54 -2 3 -16 -6
-32 -18z"/>
<path d="M5002 4735 c-18 -13 -22 -25 -20 -63 0 -26 -5 -67 -12 -92 -7 -25
-19 -68 -27 -97 -14 -51 -11 -93 7 -93 18 0 39 46 55 120 9 41 23 101 31 134
11 47 11 63 1 82 -12 22 -14 23 -35 9z"/>
<path d="M6630 4680 c0 -76 40 -143 114 -192 55 -37 62 -35 31 9 -14 21 -25
45 -25 53 0 14 -57 89 -106 140 -12 12 -14 11 -14 -10z"/>
<path d="M6578 4428 c-20 -35 -49 -87 -63 -117 -49 -98 -119 -185 -186 -231
-49 -34 -95 -73 -172 -148 -82 -79 -105 -92 -167 -92 l-48 0 9 -37 c5 -21 9
-64 9 -97 l0 -58 28 6 c15 4 46 15 70 24 l42 17 -6 42 c-13 85 20 154 89 189
43 23 184 46 206 34 13 -7 27 -2 54 17 l36 26 41 -22 c50 -26 50 -26 50 -1 0
22 62 66 104 74 70 13 71 15 30 50 l-38 31 95 5 c79 4 104 10 149 34 84 43
207 53 305 22 23 -6 85 -40 85 -45 0 -3 -17 -16 -38 -28 -25 -14 -64 -23 -117
-28 -86 -7 -124 -16 -197 -48 -26 -11 -60 -20 -77 -21 -30 -1 -47 -19 -35 -37
5 -10 138 -79 150 -79 3 0 4 13 2 29 l-4 30 80 -5 c45 -3 114 -4 155 -4 124 1
162 -16 271 -123 52 -51 122 -112 155 -136 33 -24 65 -50 71 -57 9 -11 18 -12
42 -3 18 6 68 16 112 22 l81 12 -94 87 -95 87 -25 -23 c-14 -13 -29 -40 -32
-60 -7 -34 -9 -36 -47 -36 l-41 0 6 42 c3 23 19 61 37 87 27 37 30 47 18 55
-7 6 -40 31 -73 55 -33 25 -107 85 -164 135 -180 158 -323 253 -367 244 -12
-2 -6 -9 22 -23 43 -22 124 -97 124 -115 0 -6 -12 -2 -26 9 -15 12 -33 21 -41
21 -7 0 -50 12 -93 27 l-80 27 -57 -19 c-39 -13 -61 -28 -72 -46 -22 -39 -95
-49 -102 -14 -3 20 -11 40 -25 73 -8 18 -14 43 -14 55 0 29 -63 141 -81 145
-9 1 -29 -23 -51 -60z"/>
<path d="M6204 3837 c-14 -13 -25 -30 -23 -39 3 -12 12 -6 32 23 32 44 30 49
-9 16z"/>
<path d="M4966 3816 c-30 -31 -56 -92 -56 -130 0 -20 2 -20 42 4 52 30 115 50
208 65 50 8 70 13 49 14 -52 1 -121 28 -145 56 -29 34 -61 31 -98 -9z"/>
<path d="M5569 3823 c-14 -16 -30 -45 -36 -65 -12 -41 -1 -59 45 -72 12 -4 22
-14 22 -23 0 -10 5 -13 18 -8 9 4 70 10 136 13 l118 5 -4 62 c-5 86 -18 99
-88 91 -38 -4 -76 -1 -115 9 -74 19 -67 20 -96 -12z"/>
<path d="M5498 3658 c31 -33 36 -35 63 -25 l29 11 -48 14 c-26 8 -54 19 -62
25 -8 6 0 -5 18 -25z"/>
<path d="M4047 3599 c7 -7 15 -10 18 -7 3 3 -2 9 -12 12 -14 6 -15 5 -6 -5z"/>
<path d="M7845 3583 c-11 -2 -25 -6 -32 -8 -7 -2 17 -32 52 -66 36 -34 67 -70
70 -80 4 -11 16 -24 28 -30 18 -10 25 -7 54 25 28 30 33 43 33 85 0 81 0 81
-99 80 -47 -1 -95 -3 -106 -6z"/>
<path d="M5617 3568 c-25 -9 -28 -14 -22 -37 3 -14 9 -63 12 -109 6 -92 11
-98 68 -88 26 5 35 12 35 26 0 11 -7 20 -15 20 -12 0 -15 14 -15 70 0 44 -6
82 -15 100 -9 17 -17 30 -18 29 -1 0 -15 -5 -30 -11z"/>
<path d="M7300 3576 c0 -2 8 -10 18 -17 15 -13 16 -12 3 4 -13 16 -21 21 -21
13z"/>
<path d="M8133 3408 c3 -51 9 -103 13 -115 6 -21 3 -23 -26 -23 -31 0 -32 -1
-17 -18 10 -10 17 -24 17 -30 0 -6 9 -16 20 -22 12 -6 25 -22 30 -36 5 -13 16
-24 24 -24 7 0 29 -19 49 -42 19 -24 67 -77 106 -118 39 -41 71 -78 71 -82 0
-5 5 -8 11 -8 6 0 30 -20 54 -44 24 -24 74 -70 110 -102 52 -45 68 -55 75 -44
5 8 11 12 13 10 32 -37 124 -183 153 -243 l39 -79 5 89 c5 97 -2 123 -45 163
-15 14 -43 50 -62 80 -20 30 -44 67 -54 82 -11 15 -19 32 -19 37 0 14 61 -9
140 -52 107 -59 166 -71 300 -63 286 18 292 19 346 53 49 32 133 132 180 217
18 32 63 155 64 174 0 13 -19 -13 -24 -31 -16 -65 -125 -207 -159 -207 -7 0
-29 -5 -50 -11 -29 -8 -41 -18 -49 -40 -5 -16 -14 -29 -19 -29 -5 0 -9 -7 -9
-15 0 -10 -10 -15 -26 -15 -16 0 -36 -10 -48 -24 l-21 -24 -50 24 c-96 48
-231 68 -255 39 -10 -12 -17 -10 -48 15 -21 16 -91 57 -157 91 -66 34 -139 77
-162 95 -23 19 -44 34 -48 34 -10 0 -146 114 -190 159 -35 37 -44 41 -87 41
l-48 0 0 53 c0 53 0 53 -69 115 -38 34 -73 62 -77 62 -4 0 -4 -42 -1 -92z"/>
<path d="M4791 3449 c-13 -39 -13 -39 -2 -39 8 0 22 61 16 68 -1 2 -8 -11 -14
-29z"/>
<path d="M4770 3378 c0 -2 -4 -18 -9 -36 -6 -20 -6 -32 0 -32 5 0 9 12 9 28 0
21 2 24 10 12 7 -11 12 -12 21 -3 8 8 6 14 -10 22 -12 7 -21 10 -21 9z"/>
<path d="M4810 3320 c-8 -5 -12 -12 -9 -15 4 -3 12 1 19 10 14 17 11 19 -10 5z"/>
<path d="M8235 2859 c-20 -5 -10 -6 31 -3 105 9 176 -26 202 -101 6 -18 11
-23 11 -12 2 34 -28 87 -61 107 -35 21 -123 26 -183 9z"/>
<path d="M5755 2813 c18 -16 65 -33 65 -23 0 11 -8 16 -45 24 -18 4 -26 4 -20
-1z"/>
<path d="M7926 2799 c-65 -10 -121 -21 -125 -25 -17 -19 247 21 267 40 7 8 -3
7 -142 -15z"/>
<path d="M7423 2803 c9 -2 25 -2 35 0 9 3 1 5 -18 5 -19 0 -27 -2 -17 -5z"/>
<path d="M7540 2786 c25 -7 65 -19 89 -26 34 -11 46 -11 49 -2 2 7 11 12 20
13 46 1 -32 17 -113 22 -85 6 -87 5 -45 -7z"/>
<path d="M7733 2773 c9 -2 23 -2 30 0 6 3 -1 5 -18 5 -16 0 -22 -2 -12 -5z"/>
<path d="M7498 2753 c7 -3 16 -2 19 1 4 3 -2 6 -13 5 -11 0 -14 -3 -6 -6z"/>
<path d="M6030 2710 c20 -13 33 -13 25 0 -3 6 -14 10 -23 10 -15 0 -15 -2 -2
-10z"/>
<path d="M6110 2710 c0 -5 5 -10 11 -10 5 0 7 5 4 10 -3 6 -8 10 -11 10 -2 0
-4 -4 -4 -10z"/>
<path d="M8930 2475 c-1 -33 -4 -91 -9 -129 -6 -60 -4 -84 21 -175 15 -59 33
-130 40 -158 l11 -53 187 0 188 0 -34 78 c-18 42 -46 91 -62 108 -16 16 -32
42 -36 57 -3 15 -11 27 -16 27 -5 0 -25 15 -44 34 -32 33 -36 34 -75 25 -90
-20 -149 42 -111 117 l19 37 -24 26 c-14 14 -31 35 -39 46 -14 18 -15 15 -16
-40z"/>
<path d="M9023 2374 c-10 -25 11 -49 45 -52 27 -3 30 -1 25 18 -5 20 -39 50
-56 50 -4 0 -10 -7 -14 -16z"/>
<path d="M5256 1159 c35 -68 121 -209 179 -295 35 -49 65 -100 69 -111 4 -12
20 -36 36 -55 36 -40 80 -123 80 -149 0 -10 7 -38 15 -62 8 -24 16 -52 18 -63
2 -10 14 -39 25 -64 12 -25 22 -52 22 -60 0 -23 110 -236 140 -271 l25 -30
273 3 274 3 -37 55 c-21 30 -55 76 -76 102 -22 26 -63 92 -92 147 -67 128
-185 265 -239 276 -31 7 -53 29 -43 44 3 6 -10 18 -29 28 -20 9 -36 23 -36 30
0 7 -9 18 -20 25 -33 21 -26 64 18 104 57 55 4 23 -91 -53 -45 -37 -88 -73
-95 -80 -7 -7 -21 -13 -31 -13 -24 0 -55 35 -45 51 4 7 -1 18 -12 26 -10 7
-19 21 -19 30 0 10 -11 20 -25 23 -19 4 -26 13 -28 37 -2 18 -15 42 -33 59
-16 15 -29 33 -29 39 0 6 -11 18 -25 25 -14 7 -25 18 -25 24 0 6 -18 36 -40
66 -22 30 -49 74 -60 98 -13 29 -25 42 -40 42 -20 0 -20 -1 -4 -31z"/>
<path d="M6620 1150 c45 -45 50 -47 50 -22 0 11 -11 24 -25 30 -14 6 -25 16
-25 22 0 5 -9 10 -20 10 -17 0 -13 -7 20 -40z"/>
<path d="M8872 1083 c-18 -60 -50 -164 -72 -233 -63 -197 -48 -184 23 20 37
107 97 299 97 313 0 4 -4 7 -8 7 -5 0 -23 -48 -40 -107z"/>
<path d="M9106 1178 c19 -34 27 -39 35 -26 16 24 9 38 -17 38 -17 0 -23 -4
-18 -12z"/>
<path d="M6740 1020 c0 -5 5 -10 11 -10 5 0 7 5 4 10 -3 6 -8 10 -11 10 -2 0
-4 -4 -4 -10z"/>
<path d="M3508 967 c-39 -38 -155 -190 -185 -241 -38 -65 9 -119 138 -159 46
-14 111 -33 144 -42 196 -54 229 -68 270 -110 22 -22 61 -51 87 -64 26 -12 50
-31 54 -43 6 -21 175 -196 257 -267 44 -38 53 -41 105 -41 l57 0 -30 20 c-16
10 -48 33 -70 49 -22 17 -56 42 -75 55 -52 37 -63 48 -83 79 -10 15 -24 27
-31 27 -42 0 -110 98 -122 176 -4 31 -13 48 -28 56 -28 14 -76 59 -76 71 0 6
8 16 18 23 15 12 15 13 -9 14 -37 0 -91 39 -114 83 l-20 38 24 20 c13 10 37
19 55 19 37 0 105 -30 128 -56 33 -38 68 -118 68 -155 l0 -39 42 0 c39 0 47
-5 98 -60 38 -41 63 -60 79 -60 14 0 43 -11 67 -25 32 -19 44 -22 52 -12 20
24 34 105 42 242 5 77 11 149 15 161 4 12 1 24 -7 30 -7 6 -76 30 -153 54 -77
24 -214 67 -305 97 -257 84 -330 103 -392 103 -55 0 -60 -2 -100 -43z m166
-16 c8 -12 -20 -22 -39 -15 -19 8 -9 24 15 24 10 0 21 -4 24 -9z"/>
<path d="M8141 885 c-120 -97 -117 -95 -105 -95 11 0 103 68 154 114 34 30 66
67 59 65 -2 0 -51 -38 -108 -84z"/>
<path d="M7774 837 c-17 -18 -44 -50 -60 -72 -121 -165 -184 -222 -300 -270
-85 -35 -97 -45 -46 -35 22 4 82 33 134 64 104 64 242 162 216 153 -25 -9 -22
6 6 40 25 29 89 143 84 148 -2 2 -17 -11 -34 -28z"/>
<path d="M7990 770 c-8 -5 -10 -10 -5 -10 6 0 17 5 25 10 8 5 11 10 5 10 -5 0
-17 -5 -25 -10z"/>
<path d="M6991 724 c0 -11 3 -14 6 -6 3 7 2 16 -1 19 -3 4 -6 -2 -5 -13z"/>
<path d="M7536 715 c-3 -8 -20 -21 -39 -28 -18 -8 -51 -31 -72 -51 -22 -20
-46 -36 -52 -36 -7 0 -13 -4 -13 -10 0 -16 -86 -94 -126 -115 -22 -10 -41 -20
-43 -21 -1 -2 0 -8 4 -13 13 -23 166 74 255 162 104 102 114 114 102 121 -6 3
-12 -1 -16 -9z"/>
<path d="M7010 700 c0 -5 14 -25 31 -45 25 -28 34 -33 45 -24 25 21 16 49 -21
65 -40 16 -55 18 -55 4z"/>
<path d="M7297 668 c-15 -11 -40 -32 -55 -47 -15 -14 -45 -41 -66 -60 -31 -26
-37 -37 -29 -49 17 -27 29 -24 78 20 26 24 56 48 67 54 10 5 15 13 12 17 -4 4
-3 7 3 7 10 0 29 68 21 75 -2 2 -16 -6 -31 -17z"/>
<path d="M4692 585 l-33 -75 0 -167 c1 -93 1 -194 1 -226 0 -54 -1 -57 -25
-57 -18 0 -25 5 -25 20 0 14 -11 22 -42 30 -24 6 -60 18 -81 27 -20 9 -40 13
-44 10 -3 -4 3 -37 14 -74 l20 -68 146 -3 145 -3 7 41 c5 30 11 40 26 40 13 0
19 -7 19 -21 0 -11 5 -29 10 -40 10 -17 22 -19 140 -19 l130 0 0 24 c0 45 18
74 52 85 34 11 34 11 35 79 1 37 7 81 13 97 12 30 15 201 4 229 -6 16 -65 32
-87 23 -20 -8 -36 -72 -48 -187 -18 -185 -26 -221 -56 -252 -22 -23 -35 -28
-72 -28 -64 1 -128 31 -137 65 -10 39 2 114 32 207 19 59 28 113 31 184 l6
101 -49 17 c-86 29 -95 26 -132 -59z"/>
<path d="M8471 494 c-72 -143 -212 -314 -340 -417 -37 -29 -15 -32 23 -3 19
14 38 26 42 26 15 0 199 204 231 258 58 94 104 196 101 220 -2 16 -18 -7 -57
-84z"/>
<path d="M5446 428 c-24 -38 -35 -98 -34 -185 1 -62 -3 -88 -16 -108 -20 -30
-71 -55 -113 -55 l-27 0 27 -28 c15 -15 27 -33 27 -40 0 -8 23 -12 74 -12 70
0 76 2 95 28 11 17 37 34 59 40 60 18 60 37 2 73 -30 19 -50 38 -50 49 0 10
21 33 50 54 27 19 57 47 66 62 17 25 17 28 -2 62 -21 39 -60 66 -111 77 -26 5
-34 2 -47 -17z"/>
<path d="M7372 404 c-24 -12 -56 -27 -72 -33 -21 -7 -28 -15 -24 -25 9 -23 15
-21 95 34 75 52 76 64 1 24z"/>
<path d="M7558 303 c-10 -2 -18 -9 -18 -14 0 -6 8 -5 20 1 11 6 20 13 20 15 0
3 -1 4 -2 4 -2 -1 -11 -3 -20 -6z"/>
<path d="M8080 30 c-9 -6 -10 -10 -3 -10 6 0 15 5 18 10 8 12 4 12 -15 0z"/>
</g>
</svg>
