<?xml version="1.0" standalone="no"?>
<!DOCTYPE svg PUBLIC "-//W3C//DTD SVG 20010904//EN"
 "http://www.w3.org/TR/2001/REC-SVG-20010904/DTD/svg10.dtd">
<svg version="1.0" xmlns="http://www.w3.org/2000/svg"
 width="1443.000000pt" height="568.000000pt" viewBox="0 0 1443.000000 568.000000"
 preserveAspectRatio="xMidYMid meet">

<g transform="translate(0.000000,568.000000) scale(0.100000,-0.100000)"
fill="#000000" stroke="none">
<path d="M0 2840 l0 -2840 7215 0 7215 0 0 2840 0 2840 -7215 0 -7215 0 0
-2840z m14040 1660 l0 -310 -4800 0 -4800 0 0 310 0 310 4800 0 4800 0 0 -310z
m-13345 -711 c11 -17 -4 -24 -24 -12 -22 13 -31 8 -31 -19 0 -10 8 -19 18 -19
16 -1 16 -2 0 -6 -13 -3 -18 -15 -18 -43 0 -27 6 -42 18 -49 14 -8 9 -10 -22
-11 -31 0 -37 3 -28 12 16 16 16 88 0 89 -10 0 -10 2 0 6 6 2 12 12 12 22 0 9
5 22 12 29 15 15 55 16 63 1z m-232 -6 c-9 -3 -13 -28 -13 -75 0 -61 2 -69 18
-66 20 4 32 78 12 78 -6 0 -9 4 -6 9 3 5 26 9 51 9 48 1 49 1 58 -75 l4 -33
-101 0 c-74 1 -96 3 -83 11 13 8 17 23 17 69 0 46 -4 61 -17 69 -14 8 -8 10
27 10 25 0 39 -3 33 -6z m1145 -13 c-11 -18 -28 -27 -28 -16 0 16 14 36 26 36
12 0 12 -4 2 -20z m-832 -54 c13 -22 14 -29 2 -53 -15 -31 -59 -43 -84 -22
-17 14 -19 70 -2 87 21 21 66 14 84 -12z m262 -21 c2 -22 8 -45 14 -52 8 -10
-2 -13 -48 -13 l-59 0 4 46 c3 40 1 45 -15 42 -23 -4 -31 -52 -13 -74 9 -12 6
-14 -22 -14 -26 0 -30 3 -21 12 7 7 12 27 12 44 0 30 -3 33 -27 31 -23 -2 -29
-8 -31 -30 -2 -16 2 -35 9 -43 9 -12 6 -14 -22 -14 -26 0 -30 3 -21 12 15 15
16 78 1 78 -5 0 -8 4 -5 9 3 4 58 8 123 7 l118 -1 3 -40z m110 33 c23 -23 13
-38 -23 -38 -38 0 -44 -10 -19 -31 12 -10 20 -10 35 -1 21 13 26 3 7 -16 -31
-31 -80 -4 -80 43 0 47 49 74 80 43z m180 0 c7 -7 12 -26 12 -43 0 -38 -16
-55 -52 -55 -49 0 -69 54 -35 98 12 15 59 16 75 0z m190 -38 c2 -24 9 -48 15
-52 7 -4 -15 -8 -48 -8 l-60 0 2 52 c1 29 2 54 2 55 1 1 20 1 44 0 l42 -2 3
-45z m62 5 c0 -35 4 -45 16 -45 13 0 15 9 12 45 -3 38 0 45 14 45 15 0 18 -9
18 -44 0 -31 5 -46 16 -50 13 -5 15 2 13 42 l-3 47 77 2 c85 2 80 6 90 -74 3
-28 0 -33 -17 -33 -19 0 -21 5 -17 46 3 40 1 45 -15 42 -23 -4 -31 -52 -13
-74 10 -12 -3 -14 -102 -12 l-114 3 -3 45 c-2 24 -9 48 -15 52 -7 5 -1 8 16 8
25 0 27 -3 27 -45z m348 33 c23 -23 13 -38 -23 -38 -38 0 -44 -10 -19 -31 12
-10 20 -10 35 -1 10 7 19 9 19 4 0 -15 -24 -32 -45 -32 -30 0 -45 19 -45 55 0
36 15 55 45 55 12 0 26 -5 33 -12z m102 -4 c0 -9 -8 -14 -17 -12 -22 4 -31
-46 -12 -68 9 -12 6 -14 -22 -14 -26 0 -30 3 -21 12 15 15 16 78 1 78 -5 0 -8
4 -5 9 10 16 76 11 76 -5z m98 4 c7 -7 12 -26 12 -43 0 -38 -16 -55 -52 -55
-49 0 -69 54 -35 98 12 15 59 16 75 0z m8377 -318 l0 -145 -1260 0 -1260 0 -3
134 c-1 74 0 141 2 148 4 11 236 13 1263 11 l1258 -3 0 -145z m-9810 -241 c11
-17 -4 -24 -24 -12 -22 13 -31 8 -31 -19 0 -10 8 -19 18 -19 16 -1 16 -2 0 -6
-13 -3 -18 -15 -18 -43 0 -27 6 -42 18 -49 14 -8 9 -10 -22 -11 -31 0 -37 3
-28 12 16 16 16 88 0 89 -10 0 -10 2 0 6 6 2 12 12 12 22 0 9 5 22 12 29 15
15 55 16 63 1z m-232 -6 c-9 -3 -13 -28 -13 -75 0 -61 2 -69 18 -66 20 4 32
78 12 78 -6 0 -9 4 -6 9 3 5 26 9 51 9 48 1 49 1 58 -75 l4 -33 -101 0 c-74 1
-96 3 -83 11 13 8 17 23 17 69 0 46 -4 61 -17 69 -14 8 -8 10 27 10 25 0 39
-3 33 -6z m1532 -13 c-20 -22 -31 -20 -22 5 4 8 14 15 23 15 16 0 16 -2 -1
-20z m-467 -31 c9 -1 34 -1 55 -1 26 1 37 -3 34 -11 -2 -7 -11 -11 -21 -9 -13
2 -16 -5 -16 -37 0 -22 5 -41 13 -44 6 -3 -14 -5 -45 -5 l-58 0 0 49 c0 27 -5
49 -10 49 -6 0 -2 12 7 27 18 27 18 27 21 5 2 -12 11 -23 20 -23z m-752 -23
c13 -22 14 -29 2 -53 -15 -31 -59 -43 -84 -22 -17 14 -19 70 -2 87 21 21 66
14 84 -12z m262 -21 c2 -22 8 -45 14 -52 8 -10 -2 -13 -48 -13 l-59 0 4 46 c3
40 1 45 -15 42 -23 -4 -31 -52 -13 -74 9 -12 6 -14 -22 -14 -26 0 -30 3 -21
12 7 7 12 27 12 44 0 30 -3 33 -27 31 -23 -2 -29 -8 -31 -30 -2 -16 2 -35 9
-43 9 -12 6 -14 -22 -14 -26 0 -30 3 -21 12 15 15 16 78 1 78 -5 0 -8 4 -5 9
3 4 58 8 123 7 l118 -1 3 -40z m110 33 c23 -23 13 -38 -23 -38 -38 0 -44 -10
-19 -31 12 -10 20 -10 35 -1 21 13 26 3 7 -16 -31 -31 -80 -4 -80 43 0 47 49
74 80 43z m180 0 c7 -7 12 -26 12 -43 0 -38 -16 -55 -52 -55 -49 0 -69 54 -35
98 12 15 59 16 75 0z m62 -34 c0 -38 3 -45 18 -42 21 4 29 53 11 74 -9 11 -8
14 10 14 18 0 21 -6 21 -45 0 -25 5 -45 11 -45 5 0 8 -4 5 -9 -8 -13 -84 -12
-93 2 -4 6 -10 31 -13 54 -6 37 -4 43 12 43 15 0 18 -8 18 -46z m324 30 c32
-31 7 -94 -37 -94 -27 0 -57 28 -57 53 0 48 61 74 94 41z m190 -7 c3 -12 7
-37 9 -54 l4 -33 -61 0 c-47 0 -57 3 -48 12 15 15 16 78 1 78 -5 0 -8 4 -5 9
3 5 26 9 51 9 39 1 45 -2 49 -21z m56 -23 c0 -38 3 -45 18 -42 21 4 30 67 10
79 -9 6 -4 9 14 9 25 0 27 -3 30 -47 4 -57 22 -64 26 -10 2 22 -1 37 -8 37 -6
0 -9 4 -6 9 3 4 40 8 83 7 l78 -1 3 -40 c2 -22 8 -45 14 -52 8 -10 -2 -13 -48
-13 l-59 0 4 46 c3 40 1 45 -15 42 -23 -4 -31 -52 -14 -73 10 -12 0 -14 -67
-12 l-78 2 -3 40 c-2 22 -8 45 -14 52 -8 10 -5 13 11 13 18 0 21 -6 21 -46z
m358 34 c23 -23 13 -38 -23 -38 -38 0 -44 -10 -19 -31 12 -10 20 -10 35 -1 21
13 26 3 7 -16 -31 -31 -80 -4 -80 43 0 47 49 74 80 43z m99 -1 c-2 -7 -11 -11
-21 -9 -13 2 -16 -5 -16 -37 0 -22 5 -42 13 -44 6 -3 -1 -6 -18 -6 -30 -1 -30
-1 -28 51 1 29 2 54 2 55 1 0 17 1 37 1 22 0 34 -4 31 -11z m97 -3 c32 -31 7
-94 -37 -94 -27 0 -57 28 -57 53 0 48 61 74 94 41z m7991 -314 l0 -145 -1260
0 -1260 0 -3 134 c-1 74 0 141 2 148 4 11 236 13 1263 11 l1258 -3 0 -145z
m-9583 -555 c3 -79 2 -85 -17 -85 -19 0 -20 6 -18 82 1 46 2 84 3 86 0 1 6 2
14 2 11 0 15 -20 18 -85z m298 10 c0 -41 1 -78 3 -82 1 -5 -17 -9 -40 -10 -36
-2 -45 1 -59 22 -22 33 -1 79 39 83 19 2 27 9 27 23 0 10 -6 19 -12 19 -9 0
-8 4 2 10 34 22 40 12 40 -65z m-712 53 c17 -17 15 -57 -3 -64 -22 -9 -19 -19
16 -53 l31 -31 -25 0 c-17 0 -32 11 -48 35 -13 19 -27 35 -31 35 -13 0 -9 -45
4 -58 9 -9 3 -12 -27 -11 -22 0 -34 3 -27 6 8 3 12 28 12 73 0 45 -4 70 -12
73 -7 3 12 6 43 6 30 1 60 -4 67 -11z m980 -8 c-11 -18 -28 -27 -28 -16 0 16
14 36 26 36 12 0 12 -4 2 -20z m-494 -32 c8 -6 7 -8 -1 -8 -8 0 -13 -15 -13
-40 0 -22 3 -40 6 -40 3 0 19 11 35 24 15 13 34 26 40 28 7 2 9 10 5 16 -10
17 -26 15 -26 -3 0 -8 -7 -15 -15 -15 -8 0 -15 4 -15 9 0 16 29 33 52 29 19
-2 23 -10 26 -45 2 -24 8 -43 13 -43 6 0 8 -4 5 -9 -8 -12 -78 -11 -93 1 -9 7
-13 7 -13 -1 0 -18 -38 -13 -44 7 -11 38 -9 88 4 112 13 23 14 24 18 5 2 -11
9 -23 16 -27z m-356 -10 c23 -23 13 -38 -23 -38 -38 0 -44 -10 -19 -31 12 -10
20 -10 35 -1 21 13 26 3 7 -16 -31 -31 -80 -4 -80 43 0 47 49 74 80 43z m102
-10 c0 -20 -1 -20 -18 -5 -23 21 -32 21 -32 3 0 -8 9 -17 19 -21 11 -3 25 -12
31 -20 18 -21 -4 -45 -41 -45 -23 0 -29 5 -29 21 0 19 1 19 16 5 19 -20 34
-21 34 -3 0 8 -11 19 -25 25 -23 11 -33 40 -18 55 3 4 19 7 35 7 22 0 28 -5
28 -22z m50 -24 c0 -38 3 -45 18 -42 21 4 30 67 10 79 -9 6 -7 9 10 9 19 0 22
-5 22 -39 0 -22 5 -43 10 -46 19 -12 0 -23 -40 -23 -45 -1 -51 6 -60 65 -6 37
-4 43 12 43 15 0 18 -8 18 -46z m538 34 c7 -7 12 -26 12 -43 0 -38 -16 -55
-52 -55 -49 0 -69 54 -35 98 12 15 59 16 75 0z m182 -7 c15 -29 13 -31 -30
-31 -30 0 -38 -3 -34 -14 8 -20 35 -29 48 -16 17 17 27 11 16 -10 -14 -27 -65
-27 -80 -1 -14 28 -12 57 6 75 21 22 61 20 74 -3z m60 3 c0 -9 -5 -14 -12 -12
-18 6 -21 28 -4 28 9 0 16 -7 16 -16z m0 -79 c0 -8 -7 -15 -15 -15 -16 0 -20
12 -8 23 11 12 23 8 23 -8z m6830 -1285 l0 -150 -665 0 -665 0 0 150 0 150
665 0 665 0 0 -150z m830 0 l0 -150 -370 0 -370 0 0 150 0 150 370 0 370 0 0
-150z m1220 0 l0 -150 -565 0 -565 0 0 150 0 150 565 0 565 0 0 -150z m960 0
l0 -150 -440 0 -440 0 0 150 0 150 440 0 440 0 0 -150z"/>
<path d="M4450 4500 l0 -300 4790 0 4790 0 0 300 0 300 -4790 0 -4790 0 0
-300z m2966 130 c19 -8 30 -8 38 0 20 20 26 9 26 -45 0 -30 -3 -55 -7 -55 -5
1 -17 15 -28 33 -43 68 -119 72 -162 8 -18 -27 -23 -48 -23 -98 0 -141 78
-192 178 -116 29 22 33 23 30 7 -6 -34 -66 -64 -127 -64 -105 0 -171 64 -171
164 0 63 37 129 88 156 41 21 115 26 158 10z m2689 -25 c0 -26 -3 -30 -29 -30
-36 0 -56 26 -36 50 8 9 24 15 39 13 22 -2 26 -8 26 -33z m-2265 -117 c0 -118
3 -145 17 -160 15 -17 13 -18 -53 -18 -52 1 -65 3 -51 11 15 9 17 27 17 149 0
122 -2 140 -17 149 -14 8 -6 10 35 11 l52 0 0 -142z m620 -6 c0 -102 4 -152
12 -160 9 -9 -2 -12 -52 -12 -50 0 -61 3 -52 12 8 8 12 56 12 148 0 92 -4 140
-12 148 -9 9 0 12 40 12 l52 0 0 -148z m490 3 c0 -125 2 -145 17 -153 14 -8
10 -12 -23 -21 -48 -13 -64 -14 -64 -2 0 5 -12 5 -28 -1 -70 -27 -119 28 -110
122 4 42 11 59 32 77 29 25 75 30 94 11 9 -9 12 -1 12 40 0 38 -4 54 -17 61
-14 8 -6 10 35 11 l52 0 0 -145z m1960 -3 c0 -102 4 -152 12 -160 9 -9 -2 -12
-52 -12 -60 0 -62 1 -47 18 24 26 25 247 1 280 -15 22 -15 22 35 22 l51 0 0
-148z m-3232 32 c20 -14 22 -24 22 -99 0 -57 4 -85 13 -88 9 -4 8 -8 -3 -16
-22 -15 -56 -13 -70 4 -11 13 -15 13 -33 0 -34 -24 -76 -19 -89 10 -15 33 6
64 66 96 38 20 46 29 46 51 0 16 -4 29 -10 30 -31 4 -35 1 -35 -27 0 -27 -3
-30 -30 -30 -23 0 -31 5 -33 21 -7 51 103 85 156 48z m373 -5 c28 -28 21 -54
-16 -54 -22 0 -31 5 -33 20 -2 11 -8 24 -13 30 -16 16 -29 -16 -29 -72 0 -41
5 -58 24 -80 25 -28 25 -28 55 -11 38 21 41 7 5 -21 -39 -31 -89 -28 -125 8
-24 24 -29 38 -29 76 0 50 20 98 47 114 31 18 91 13 114 -10z m618 -5 c17 -22
21 -41 21 -100 0 -48 4 -74 11 -74 8 0 8 -5 -1 -15 -16 -20 -69 -20 -77 0 -5
14 -8 14 -29 0 -45 -29 -94 -14 -94 30 0 25 30 55 78 79 25 13 32 23 32 46 0
32 -13 45 -36 36 -11 -4 -12 -11 -6 -23 5 -10 7 -24 5 -30 -6 -17 -48 -16 -62
1 -27 33 26 75 96 76 33 0 46 -5 62 -26z m504 5 c34 -26 50 -83 36 -131 -28
-105 -168 -104 -200 1 -32 106 82 196 164 130z m262 2 c13 -43 -32 -72 -54
-33 -17 30 -35 -3 -39 -75 -4 -56 -2 -69 14 -80 15 -11 9 -13 -52 -13 -52 1
-65 3 -51 11 14 8 17 25 17 94 0 69 -3 86 -17 94 -14 8 -6 10 35 11 30 0 52
-4 52 -11 0 -5 10 -3 22 5 31 22 65 20 73 -3z m194 -7 c17 -22 21 -41 21 -100
0 -48 4 -74 11 -74 8 0 8 -5 -1 -15 -16 -20 -69 -20 -77 0 -5 14 -8 14 -29 0
-45 -29 -94 -14 -94 30 0 25 30 55 78 79 25 13 32 23 32 46 0 32 -13 45 -36
36 -11 -4 -12 -11 -6 -23 5 -10 7 -24 5 -30 -6 -17 -48 -16 -62 1 -27 33 26
75 96 76 33 0 46 -5 62 -26z m343 -16 c2 -21 1 -38 -1 -38 -3 0 -16 14 -31 32
-16 19 -31 28 -38 24 -22 -13 -12 -32 33 -64 54 -38 66 -72 38 -110 -18 -23
-28 -27 -74 -27 -59 -1 -69 6 -69 48 0 34 4 34 39 -5 19 -21 33 -29 44 -25 29
11 19 35 -27 66 -61 42 -73 84 -36 121 16 16 32 20 69 19 l49 -2 4 -39z m380
25 c17 -15 19 -15 36 0 10 10 31 17 47 17 52 0 65 -23 65 -115 0 -50 5 -86 12
-93 9 -9 -1 -12 -46 -12 -49 0 -57 2 -47 14 15 18 11 168 -5 173 -7 2 -19 -3
-28 -12 -24 -24 -23 -150 2 -164 13 -8 1 -10 -47 -11 -51 0 -62 3 -53 12 15
15 16 164 1 173 -5 4 -19 -1 -30 -11 -25 -23 -28 -134 -3 -158 14 -15 10 -16
-47 -16 -49 0 -60 3 -51 12 16 16 16 170 0 187 -11 11 -3 12 45 9 32 -3 60 -1
63 4 9 14 67 9 86 -9z m402 -14 c42 -49 34 -150 -13 -186 -21 -16 -74 -16 -89
-1 -9 9 -12 2 -12 -35 0 -33 5 -49 18 -56 13 -8 0 -10 -52 -11 -66 0 -68 1
-53 18 25 28 25 247 0 274 -17 19 -15 19 45 17 34 -1 65 1 69 4 17 18 62 5 87
-24z m363 -8 c39 -58 33 -71 -38 -71 l-61 0 7 -27 c8 -33 33 -63 51 -63 7 0
22 10 34 22 11 12 23 18 27 15 3 -4 -6 -21 -22 -37 -48 -50 -119 -39 -151 22
-59 115 83 244 153 139z m189 2 c9 -47 0 -50 -34 -12 -17 19 -34 29 -40 25
-21 -13 -12 -30 33 -64 54 -39 66 -73 38 -110 -17 -23 -28 -27 -75 -28 l-56
-2 -6 36 c-3 20 -4 38 -2 39 2 2 17 -10 34 -27 34 -34 50 -38 59 -14 4 11 -8
28 -40 55 -52 45 -63 69 -46 101 17 33 28 38 81 36 46 -1 48 -2 54 -35z
m-3116 -62 c0 -91 9 -113 35 -91 19 16 21 150 3 168 -9 9 -2 12 35 12 l47 0 0
-93 c0 -59 4 -97 12 -105 9 -9 2 -12 -35 -12 -29 0 -47 4 -47 12 0 6 -7 4 -18
-5 -10 -10 -29 -17 -42 -17 -47 0 -60 26 -60 115 0 50 -5 86 -12 93 -9 9 -2
12 35 12 l47 0 0 -89z m1920 -6 c0 -79 3 -96 18 -104 13 -8 0 -10 -52 -11 -66
0 -68 1 -53 18 23 25 23 138 1 170 -15 22 -15 22 35 22 l51 0 0 -95z"/>
<path d="M8820 4491 c-21 -40 -7 -161 19 -161 42 0 60 130 23 163 -24 22 -29
21 -42 -2z"/>
<path d="M7608 4403 c-19 -21 -24 -58 -9 -67 16 -10 32 22 29 55 -3 31 -3 31
-20 12z"/>
<path d="M8588 4400 c-20 -28 -23 -56 -7 -66 18 -11 31 12 27 52 l-3 39 -17
-25z"/>
<path d="M9092 4498 c-19 -19 -16 -152 4 -169 27 -22 44 14 44 91 0 59 -10 90
-30 90 -3 0 -11 -5 -18 -12z"/>
<path d="M9548 4400 c-20 -28 -23 -56 -7 -66 18 -11 31 12 27 52 l-3 39 -17
-25z"/>
<path d="M10652 4488 c-7 -7 -12 -40 -12 -80 0 -58 3 -69 21 -79 30 -16 41 0
47 63 6 83 -21 131 -56 96z"/>
<path d="M11031 4491 c-19 -35 -13 -51 18 -51 27 0 28 2 22 32 -8 38 -26 47
-40 19z"/>
<path d="M514 3706 c-10 -25 0 -61 19 -64 14 -3 17 4 17 37 0 30 -4 41 -15 41
-9 0 -18 -6 -21 -14z"/>
<path d="M710 3715 c-15 -18 0 -70 20 -70 23 0 35 31 22 59 -13 30 -24 32 -42
11z"/>
<path d="M980 3679 c0 -33 3 -40 18 -37 12 2 18 14 20 41 3 32 0 37 -17 37
-18 0 -21 -6 -21 -41z"/>
<path d="M1097 3724 c-13 -13 -7 -24 14 -24 11 0 19 5 17 12 -5 14 -22 21 -31
12z"/>
<path d="M1270 3714 c-15 -17 -4 -65 17 -71 19 -7 34 32 23 61 -11 30 -22 33
-40 10z"/>
<path d="M1460 3680 c0 -34 3 -41 18 -38 12 2 17 13 17 38 0 25 -5 36 -17 38
-15 3 -18 -4 -18 -38z"/>
<path d="M1700 3679 c0 -33 3 -40 18 -37 12 2 18 14 20 41 3 32 0 37 -17 37
-18 0 -21 -6 -21 -41z"/>
<path d="M1877 3724 c-13 -13 -7 -24 14 -24 11 0 19 5 17 12 -5 14 -22 21 -31
12z"/>
<path d="M2070 3714 c-15 -17 -4 -65 17 -71 19 -7 34 32 23 61 -11 30 -22 33
-40 10z"/>
<path d="M514 3086 c-10 -25 0 -61 19 -64 14 -3 17 4 17 37 0 30 -4 41 -15 41
-9 0 -18 -6 -21 -14z"/>
<path d="M1510 3070 c0 -33 3 -41 14 -37 8 3 17 1 20 -6 3 -7 4 8 3 33 -1 34
-6 46 -19 48 -15 3 -18 -4 -18 -38z"/>
<path d="M710 3095 c-15 -18 0 -70 20 -70 23 0 35 31 22 59 -13 30 -24 32 -42
11z"/>
<path d="M980 3059 c0 -33 3 -40 18 -37 12 2 18 14 20 41 3 32 0 37 -17 37
-18 0 -21 -6 -21 -41z"/>
<path d="M1097 3104 c-13 -13 -7 -24 14 -24 11 0 19 5 17 12 -5 14 -22 21 -31
12z"/>
<path d="M1270 3094 c-15 -17 -4 -65 17 -71 19 -7 34 32 23 61 -11 30 -22 33
-40 10z"/>
<path d="M1657 3103 c-12 -12 -7 -60 8 -73 20 -16 35 -4 35 29 0 36 -25 62
-43 44z"/>
<path d="M1844 3086 c-10 -25 0 -61 19 -64 14 -3 17 4 17 37 0 30 -4 41 -15
41 -9 0 -18 -6 -21 -14z"/>
<path d="M2150 3059 c0 -33 3 -40 18 -37 12 2 18 14 20 41 3 32 0 37 -17 37
-18 0 -21 -6 -21 -41z"/>
<path d="M2267 3104 c-13 -13 -7 -24 14 -24 11 0 19 5 17 12 -5 14 -22 21 -31
12z"/>
<path d="M2457 3103 c-12 -12 -7 -60 8 -73 20 -16 35 -4 35 29 0 36 -25 62
-43 44z"/>
<path d="M1152 2238 c-17 -17 -15 -44 4 -63 22 -22 36 -6 32 35 -3 37 -17 47
-36 28z"/>
<path d="M440 2266 c0 -39 6 -43 36 -22 15 12 17 18 8 33 -6 10 -19 19 -28 21
-12 3 -16 -4 -16 -32z"/>
<path d="M1040 2185 c0 -8 7 -15 15 -15 8 0 15 7 15 15 0 8 -7 15 -15 15 -8 0
-15 -7 -15 -15z"/>
<path d="M587 2244 c-13 -13 -7 -24 14 -24 11 0 19 5 17 12 -5 14 -22 21 -31
12z"/>
<path d="M1271 2236 c-13 -15 -6 -62 11 -72 5 -4 17 0 25 9 12 11 13 22 6 43
-11 33 -26 40 -42 20z"/>
<path d="M1450 2235 c-11 -13 -8 -15 13 -15 19 0 25 4 21 15 -4 8 -10 15 -14
15 -4 0 -13 -7 -20 -15z"/>
<path d="M7202 883 l1 -78 7 65 6 65 19 -62 c11 -35 24 -62 29 -60 5 2 18 25
27 53 l17 49 1 -52 c1 -29 6 -53 11 -53 6 0 10 32 10 76 0 90 -14 95 -42 14
-10 -29 -20 -55 -22 -57 -2 -2 -13 22 -23 53 -29 86 -43 82 -41 -13z"/>
<path d="M7530 950 c0 -5 5 -10 10 -10 6 0 10 5 10 10 0 6 -4 10 -10 10 -5 0
-10 -4 -10 -10z"/>
<path d="M7680 885 c0 -43 4 -75 10 -75 6 0 10 32 10 75 0 43 -4 75 -10 75 -6
0 -10 -32 -10 -75z"/>
<path d="M7730 950 c0 -5 5 -10 10 -10 6 0 10 5 10 10 0 6 -4 10 -10 10 -5 0
-10 -4 -10 -10z"/>
<path d="M7481 938 c-1 -10 -6 -18 -13 -18 -9 0 -9 -3 0 -12 7 -7 12 -31 12
-55 0 -34 4 -43 17 -43 13 0 14 3 5 12 -16 16 -16 88 1 88 8 0 9 3 1 8 -6 4
-14 14 -17 22 -4 12 -6 11 -6 -2z"/>
<path d="M8096 941 c-2 -3 9 -7 25 -8 16 -1 29 1 29 5 0 9 -49 12 -54 3z"/>
<path d="M7360 876 c0 -49 15 -67 54 -64 25 2 26 5 24 58 -1 48 -2 50 -5 13
-7 -77 -53 -84 -53 -7 0 24 -4 44 -10 44 -5 0 -10 -20 -10 -44z"/>
<path d="M7530 865 c0 -30 5 -55 10 -55 6 0 10 25 10 55 0 30 -4 55 -10 55 -5
0 -10 -25 -10 -55z"/>
<path d="M7570 843 c0 -42 4 -73 10 -73 6 0 10 11 10 24 0 19 4 23 19 19 22
-6 51 21 51 48 0 40 -18 58 -55 57 l-35 -1 0 -74z m68 27 c4 -34 -11 -52 -35
-43 -16 6 -17 55 -1 71 19 19 33 9 36 -28z"/>
<path d="M7730 865 c0 -30 5 -55 10 -55 6 0 10 25 10 55 0 30 -4 55 -10 55 -5
0 -10 -25 -10 -55z"/>
<path d="M7788 909 c-22 -13 -24 -72 -3 -89 19 -16 65 -5 65 16 0 14 -2 14
-16 0 -20 -21 -31 -20 -44 3 -13 26 -13 33 4 56 14 19 15 19 35 1 17 -16 21
-16 21 -4 0 25 -33 34 -62 17z"/>
<path d="M7880 905 c-14 -17 0 -21 17 -4 13 13 43 5 43 -10 0 -6 -15 -14 -32
-19 -26 -6 -33 -14 -33 -33 0 -21 4 -24 41 -25 l42 -1 -5 41 c-3 23 -6 47 -9
54 -5 17 -49 15 -64 -3z m47 -72 c-17 -17 -51 -10 -45 9 5 15 52 28 57 15 2
-5 -4 -16 -12 -24z"/>
<path d="M7996 904 c-19 -19 -21 -58 -3 -76 19 -19 28 -48 15 -48 -6 0 -9 -3
-5 -6 3 -4 14 -4 23 0 13 5 14 9 5 20 -10 11 -8 16 8 21 10 3 22 12 25 20 7
19 -1 19 -21 0 -23 -23 -38 -13 -41 27 -4 41 18 57 43 32 13 -13 15 -13 15 -1
0 14 -20 27 -40 27 -5 0 -16 -7 -24 -16z"/>
<path d="M8090 905 c-14 -17 0 -21 17 -4 13 13 43 5 43 -10 0 -6 -15 -14 -32
-19 -26 -6 -33 -14 -33 -33 0 -21 4 -24 43 -25 l42 -1 0 42 c0 22 -5 46 -12
53 -17 17 -53 15 -68 -3z m47 -72 c-16 -17 -37 -10 -37 12 0 15 43 25 49 12 2
-5 -4 -16 -12 -24z"/>
<path d="M8208 909 c-12 -6 -18 -22 -18 -45 0 -27 5 -37 26 -46 34 -16 58 0
62 41 5 52 -27 75 -70 50z m53 -23 c11 -24 -2 -66 -21 -66 -13 0 -40 30 -40
45 0 16 27 45 41 45 5 0 14 -11 20 -24z"/>
<path d="M8626 944 c-9 -8 -16 -19 -16 -23 0 -14 34 -38 63 -45 17 -4 27 -13
27 -25 0 -28 -38 -33 -62 -9 -22 22 -32 20 -22 -6 15 -38 104 -27 104 13 0 23
-19 40 -56 50 -35 9 -41 26 -15 41 17 8 25 6 42 -11 26 -26 34 -20 13 9 -18
26 -56 29 -78 6z"/>
<path d="M8757 902 c-22 -25 -21 -55 2 -76 25 -23 52 -17 70 15 13 24 13 29
-2 53 -20 30 -47 33 -70 8z m51 -4 c30 -30 -1 -94 -33 -68 -25 20 -13 80 15
80 3 0 11 -5 18 -12z"/>
<path d="M8862 860 c1 -49 2 -50 5 -13 4 42 24 70 43 58 5 -3 11 -27 11 -53
l2 -47 6 43 c13 78 51 83 51 6 0 -24 5 -44 10 -44 15 0 12 87 -2 97 -7 4 -39
8 -70 8 l-58 0 2 -55z"/>
<path d="M9030 905 c-14 -17 0 -21 17 -4 13 13 43 5 43 -10 0 -6 -15 -14 -32
-19 -26 -6 -33 -14 -33 -33 0 -21 4 -24 43 -25 l42 -1 0 42 c0 22 -5 46 -12
53 -17 17 -53 15 -68 -3z m47 -72 c-16 -17 -37 -10 -37 12 0 15 43 25 49 12 2
-5 -4 -16 -12 -24z"/>
<path d="M9456 944 c-9 -8 -16 -19 -16 -23 0 -14 34 -38 63 -45 17 -4 27 -13
27 -25 0 -28 -38 -33 -62 -9 -22 22 -32 20 -22 -6 15 -38 104 -27 104 13 0 23
-19 40 -56 50 -35 9 -41 26 -15 41 17 8 25 6 42 -11 26 -26 34 -20 13 9 -18
26 -56 29 -78 6z"/>
<path d="M9680 887 l0 -74 32 -1 c42 -1 58 13 58 53 0 38 -21 60 -50 52 -16
-4 -20 0 -20 19 0 13 -4 24 -10 24 -6 0 -10 -31 -10 -73z m70 4 c13 -26 13
-33 -4 -56 -12 -16 -16 -17 -30 -6 -19 16 -21 52 -4 69 17 17 26 15 38 -7z"/>
<path d="M9798 933 c-2 -10 -1 -40 2 -68 4 -40 9 -50 25 -53 15 -2 16 -1 7 6
-9 6 -13 26 -12 53 3 65 1 79 -9 79 -5 0 -11 -8 -13 -17z"/>
<path d="M10140 942 c0 -9 45 -10 53 -2 3 3 -8 6 -24 7 -16 1 -29 -1 -29 -5z"/>
<path d="M9570 884 c0 -55 15 -74 55 -72 l35 1 0 54 c0 29 -4 53 -10 53 -5 0
-10 -20 -10 -44 0 -31 -5 -46 -16 -50 -26 -10 -34 2 -34 50 0 24 -4 44 -10 44
-5 0 -10 -16 -10 -36z"/>
<path d="M9850 864 c0 -30 5 -54 10 -54 6 0 10 20 10 45 0 30 5 47 17 53 13 8
11 10 -10 10 -26 0 -27 -3 -27 -54z"/>
<path d="M9933 914 c-7 -3 -13 -10 -13 -15 0 -6 9 -5 21 2 17 9 25 8 37 -5 15
-14 13 -16 -16 -22 -67 -14 -64 -66 5 -61 l34 2 -3 50 c-3 45 -5 50 -28 52
-14 1 -31 -1 -37 -3z m51 -68 c-7 -19 -35 -29 -47 -17 -14 14 1 31 28 31 17 0
23 -4 19 -14z"/>
<path d="M10034 895 c-17 -27 -14 -42 18 -88 11 -14 10 -19 -2 -28 -12 -8 -11
-10 5 -7 11 2 20 10 20 18 0 8 8 21 18 28 9 7 17 18 17 24 0 6 -9 3 -20 -7
-16 -15 -22 -15 -35 -5 -8 7 -15 23 -15 35 0 12 7 28 15 35 13 10 19 10 35 -5
21 -19 28 -7 8 13 -19 19 -46 14 -64 -13z"/>
<path d="M10143 914 c-7 -3 -13 -10 -13 -15 0 -6 9 -5 21 2 17 9 25 8 37 -5
15 -14 13 -16 -16 -22 -67 -14 -64 -66 5 -61 l34 2 -3 50 c-3 45 -5 50 -28 52
-14 1 -31 -1 -37 -3z m51 -68 c-7 -19 -35 -29 -47 -17 -14 14 1 31 28 31 17 0
23 -4 19 -14z"/>
<path d="M10251 906 c-17 -20 -10 -77 11 -89 12 -8 24 -7 42 1 21 9 26 19 26
46 0 49 -51 76 -79 42z m43 -2 c23 -9 21 -70 -1 -78 -32 -13 -57 46 -31 72 14
14 12 14 32 6z"/>
<path d="M10660 885 l0 -75 38 0 c57 0 77 19 77 75 0 56 -20 75 -77 75 l-38 0
0 -75z m78 49 c32 -22 30 -78 -3 -100 -40 -26 -55 -13 -55 49 0 71 13 83 58
51z"/>
<path d="M10800 950 c0 -5 5 -10 10 -10 6 0 10 5 10 10 0 6 -4 10 -10 10 -5 0
-10 -4 -10 -10z"/>
<path d="M11106 941 c-2 -3 9 -7 25 -8 16 -1 29 1 29 5 0 9 -49 12 -54 3z"/>
<path d="M10800 865 c0 -30 5 -55 10 -55 6 0 10 25 10 55 0 30 -4 55 -10 55
-5 0 -10 -25 -10 -55z"/>
<path d="M10846 898 c16 -56 35 -91 43 -82 13 14 41 104 32 104 -4 0 -14 -19
-21 -42 l-13 -43 -13 30 c-7 17 -13 36 -14 43 0 6 -5 12 -11 12 -6 0 -8 -9 -3
-22z"/>
<path d="M10953 865 c0 -33 2 -45 4 -27 2 18 2 45 0 60 -2 15 -4 0 -4 -33z"/>
<path d="M11003 914 c-24 -10 -14 -42 17 -53 31 -10 38 -25 19 -36 -5 -4 -20
1 -31 12 -15 12 -20 14 -16 4 7 -25 36 -37 56 -25 31 20 26 42 -14 59 -29 12
-35 18 -26 27 10 10 17 10 33 -1 18 -10 20 -10 17 1 -5 14 -35 20 -55 12z"/>
<path d="M11100 905 c-14 -17 0 -21 17 -4 13 13 43 5 43 -10 0 -6 -15 -14 -32
-19 -26 -6 -33 -14 -33 -33 0 -21 4 -24 41 -25 l42 -1 -5 41 c-3 23 -6 47 -9
54 -5 17 -49 15 -64 -3z m47 -72 c-17 -17 -51 -10 -45 9 5 15 52 28 57 15 2
-5 -4 -16 -12 -24z"/>
<path d="M11211 906 c-17 -20 -10 -77 11 -89 12 -8 24 -7 42 1 21 9 26 19 26
46 0 49 -51 76 -79 42z m43 -2 c23 -9 21 -70 -1 -78 -32 -13 -57 46 -31 72 14
14 12 14 32 6z"/>
</g>
</svg>
